<svg width="453" height="298" viewBox="0 0 453 298" fill="none" xmlns="http://www.w3.org/2000/svg">
<path fill-rule="evenodd" clip-rule="evenodd" d="M416.158 67.6924C422.723 67.6924 429.14 65.7458 434.599 62.0986C440.057 58.4515 444.311 53.2676 446.824 47.2026C449.336 41.1376 449.993 34.4639 448.712 28.0253C447.432 21.5868 444.27 15.6726 439.629 11.0306C434.987 6.38867 429.072 3.22747 422.634 1.94676C416.195 0.66605 409.521 1.32336 403.456 3.83556C397.391 6.34776 392.208 10.602 388.561 16.0604C384.913 21.5187 382.967 27.936 382.967 34.5007C382.967 43.3037 386.464 51.7461 392.688 57.9708C398.913 64.1955 407.355 67.6924 416.158 67.6924M416.158 68.4902C422.881 68.4902 429.452 66.4967 435.042 62.7619C440.631 59.0271 444.988 53.7187 447.561 47.5079C450.133 41.2972 450.806 34.463 449.495 27.8697C448.183 21.2764 444.946 15.22 440.193 10.4665C435.439 5.71301 429.383 2.47584 422.789 1.16434C416.196 -0.147146 409.362 0.525955 403.151 3.09854C396.94 5.67112 391.632 10.0276 387.897 15.6172C384.162 21.2067 382.169 27.7782 382.169 34.5007C382.169 43.5153 385.75 52.1606 392.124 58.5349C398.498 64.9091 407.144 68.4902 416.158 68.4902" fill="#C0C8D3"/>
<path d="M403.809 30.546C403.803 30.2271 403.86 29.9102 403.978 29.6139C404.096 29.3175 404.272 29.0477 404.495 28.8203C404.719 28.5929 404.986 28.4125 405.28 28.2896C405.574 28.1668 405.89 28.104 406.209 28.105H432.057C432.411 28.1037 432.76 28.1806 433.08 28.3302C433.4 28.4797 433.682 28.6982 433.908 28.97C434.133 29.2418 434.296 29.5601 434.384 29.9021C434.472 30.2441 434.483 30.6014 434.417 30.9482L431.328 47.3123C431.225 47.8624 430.932 48.359 430.501 48.7164C430.071 49.0737 429.528 49.2692 428.969 49.2691H406.516C405.888 49.2693 405.284 49.023 404.836 48.5831C404.387 48.1433 404.128 47.545 404.116 46.9168L403.809 30.546Z" fill="#AE4F39"/>
<path d="M430.96 46.8962V28.4867C430.96 27.8513 430.708 27.2419 430.26 26.792C429.811 26.3421 429.202 26.0884 428.567 26.0866H413.396C413.015 26.0865 412.639 25.9955 412.3 25.8212C411.961 25.6469 411.668 25.3943 411.446 25.0843L408.882 21.4979C408.66 21.1857 408.367 20.9313 408.027 20.7557C407.686 20.5801 407.309 20.4886 406.926 20.4888H399.766C399.13 20.4888 398.519 20.7416 398.069 21.1917C397.619 21.6418 397.366 22.2523 397.366 22.8888V46.8826C397.365 47.198 397.427 47.5105 397.547 47.8021C397.667 48.0937 397.844 48.3587 398.067 48.5817C398.29 48.8047 398.555 48.9815 398.847 49.1018C399.138 49.2221 399.451 49.2835 399.766 49.2826H428.56C428.875 49.2826 429.187 49.2205 429.478 49.0998C429.768 48.9791 430.033 48.8022 430.255 48.5793C430.477 48.3563 430.653 48.0917 430.773 47.8005C430.893 47.5094 430.954 47.1975 430.953 46.8826" fill="#F99184"/>
<path fill-rule="evenodd" clip-rule="evenodd" d="M294.443 57.2055C294.696 57.3907 294.892 57.6413 295.013 57.9302C295.133 58.2191 295.172 58.5353 295.126 58.8448C295.079 59.1542 294.949 59.4452 294.75 59.6862C294.55 59.9272 294.289 60.1092 293.993 60.2124L269.815 68.674C269.559 68.7636 269.284 68.791 269.015 68.7538C268.745 68.7167 268.488 68.6161 268.265 68.4603C268.042 68.3046 267.86 68.0981 267.732 67.8578C267.604 67.6176 267.536 67.3505 267.531 67.0785L267.122 40.637C267.118 40.3184 267.203 40.0051 267.367 39.7319C267.531 39.4588 267.768 39.2366 268.051 39.0901C268.334 38.9437 268.652 38.8789 268.969 38.9028C269.287 38.9267 269.592 39.0384 269.85 39.2256L273.061 41.5779C273.429 41.8463 273.889 41.9576 274.339 41.8872C274.789 41.8169 275.192 41.5708 275.461 41.2029L282.552 31.5004C282.821 31.1325 283.224 30.8863 283.675 30.816C284.125 30.7457 284.584 30.857 284.952 31.1254L297.437 40.221C297.803 40.4907 298.048 40.8949 298.117 41.3449C298.186 41.7949 298.074 42.2539 297.805 42.6211L290.707 52.3509C290.438 52.7189 290.327 53.1785 290.398 53.6285C290.468 54.0786 290.714 54.4823 291.082 54.7509L294.443 57.2055Z" fill="#2E1407"/>
<path fill-rule="evenodd" clip-rule="evenodd" d="M240.545 138.141H181.41C180.773 138.141 180.161 137.888 179.71 137.438C179.259 136.988 179.005 136.378 179.003 135.741V105.263C184.253 102.297 190.765 100.49 198.858 100.49C227.352 100.49 237.184 123.208 240.566 138.168" fill="#D5CDA0"/>
<path fill-rule="evenodd" clip-rule="evenodd" d="M251.94 111.467V135.733C251.94 136.371 251.686 136.984 251.235 137.435C250.783 137.886 250.171 138.14 249.533 138.14H201.463C203.509 126.194 210.464 106.816 234.301 106.816C241.576 106.816 247.351 108.616 251.94 111.467" fill="#F8F4F1"/>
<path d="M234.301 91.2444C234.301 92.9101 233.807 94.5385 232.882 95.9234C231.956 97.3083 230.641 98.3876 229.101 99.0247C227.562 99.6619 225.869 99.8282 224.235 99.5027C222.602 99.1773 221.101 98.3746 219.924 97.1963C218.747 96.018 217.945 94.5169 217.621 92.883C217.297 91.2491 217.465 89.5558 218.103 88.0172C218.741 86.4787 219.822 85.164 221.207 84.2396C222.593 83.3151 224.222 82.8224 225.887 82.8237C226.993 82.8237 228.088 83.0416 229.109 83.4649C230.13 83.8881 231.058 84.5085 231.839 85.2905C232.621 86.0725 233.24 87.0009 233.663 88.0225C234.085 89.0441 234.302 90.1389 234.301 91.2444" fill="#F99184"/>
<path fill-rule="evenodd" clip-rule="evenodd" d="M249.532 76.2912H181.41C180.952 76.2912 180.514 76.473 180.19 76.7965C179.867 77.12 179.685 77.5587 179.685 78.0163V135.734C179.685 136.191 179.867 136.63 180.19 136.953C180.514 137.277 180.952 137.459 181.41 137.459H249.552C250.01 137.459 250.449 137.277 250.772 136.953C251.096 136.63 251.277 136.191 251.277 135.734V78.0163C251.277 77.5587 251.096 77.12 250.772 76.7965C250.449 76.473 250.01 76.2912 249.552 76.2912M181.41 75.6094C180.771 75.6094 180.159 75.863 179.708 76.3143C179.257 76.7657 179.003 77.3779 179.003 78.0163V135.734C179.003 136.372 179.257 136.984 179.708 137.435C180.159 137.887 180.771 138.14 181.41 138.14H249.552C250.191 138.14 250.803 137.887 251.254 137.435C251.706 136.984 251.959 136.372 251.959 135.734V78.0163C251.959 77.3779 251.706 76.7657 251.254 76.3143C250.803 75.863 250.191 75.6094 249.552 75.6094H181.41Z" fill="#C0C8D3"/>
<path d="M410.805 257.563H106.707C104.824 257.563 103.298 259.089 103.298 260.972V271.882C103.298 273.764 104.824 275.291 106.707 275.291H410.805C412.688 275.291 414.215 273.764 414.215 271.882V260.972C414.215 259.089 412.688 257.563 410.805 257.563Z" fill="#F1E7DE"/>
<path d="M268.042 145.06L235.471 159.229L266.672 228.858C268.067 231.967 270.632 234.401 273.81 235.633C276.988 236.865 280.523 236.794 283.65 235.437L292.466 231.605C294.036 230.922 295.455 229.934 296.64 228.699C297.826 227.464 298.755 226.006 299.374 224.409C299.993 222.813 300.289 221.109 300.246 219.398C300.202 217.686 299.82 216 299.12 214.437L268.042 145.06Z" fill="#C0C8D3"/>
<path d="M244.289 117.733L267.962 145.136L242.502 156.236L241.65 146.82C241.475 144.788 241.953 142.753 243.014 141.011L248.209 132.447L241.289 119.833C241.063 119.432 240.995 118.962 241.098 118.514C241.201 118.066 241.467 117.672 241.844 117.41C242.222 117.147 242.683 117.035 243.139 117.095C243.595 117.154 244.012 117.382 244.309 117.733" fill="#BD4D2D"/>
<path fill-rule="evenodd" clip-rule="evenodd" d="M246.352 135.357C246.416 135.294 246.491 135.243 246.574 135.208C246.657 135.174 246.746 135.156 246.836 135.156C246.926 135.156 247.016 135.174 247.099 135.208C247.182 135.243 247.257 135.294 247.321 135.357L253.116 141.494C253.243 141.622 253.314 141.795 253.314 141.975C253.314 142.155 253.243 142.328 253.116 142.455C253.053 142.519 252.977 142.57 252.894 142.605C252.811 142.639 252.722 142.657 252.632 142.657C252.542 142.657 252.453 142.639 252.37 142.605C252.287 142.57 252.211 142.519 252.148 142.455L246.352 136.319C246.225 136.191 246.154 136.018 246.154 135.838C246.154 135.658 246.225 135.485 246.352 135.357ZM243.625 139.448C243.688 139.385 243.764 139.334 243.847 139.299C243.93 139.265 244.019 139.247 244.109 139.247C244.199 139.247 244.288 139.265 244.371 139.299C244.454 139.334 244.53 139.385 244.593 139.448L250.389 144.903C250.516 145.031 250.587 145.204 250.587 145.384C250.587 145.564 250.516 145.737 250.389 145.865C250.325 145.928 250.25 145.979 250.167 146.014C250.084 146.048 249.995 146.066 249.905 146.066C249.815 146.066 249.726 146.048 249.643 146.014C249.559 145.979 249.484 145.928 249.421 145.865L243.625 140.41C243.498 140.282 243.427 140.109 243.427 139.929C243.427 139.749 243.498 139.576 243.625 139.448Z" fill="#2E1407"/>
<path fill-rule="evenodd" clip-rule="evenodd" d="M377.614 110.539C384.964 104.45 385.462 92.92 378.718 84.7857C371.975 76.6514 360.561 74.9945 353.231 81.0833C351.242 82.776 349.678 84.9122 348.665 87.3198C347.653 89.7275 347.22 92.3394 347.402 94.945C340.788 92.2995 332.517 92.1427 322.174 96.3087C310.344 101.082 298.78 123.009 301.378 142.333C303.764 160.06 326.606 175.402 326.606 175.402L364.788 202.675C364.788 202.675 396.446 185.82 393.084 161.424C390.357 141.651 372.629 136.537 372.629 136.537C371.428 128.788 369.121 121.252 365.777 114.159C370.047 114.55 374.299 113.25 377.62 110.539" fill="#2E1407"/>
<path d="M377.546 179.82C368.948 165.024 343.788 163.17 343.788 163.17C343.788 163.17 327.615 161.69 317.428 163.17C301.923 165.427 288.287 183.059 288.287 183.059L297.28 257.904H388.305C385.53 226.451 389.11 199.709 377.546 179.82" fill="#C0C8D3"/>
<path fill-rule="evenodd" clip-rule="evenodd" d="M333.724 173.125C333.85 173.042 334 173.002 334.15 173.014C334.301 173.025 334.444 173.085 334.556 173.186L346.604 183.959C347.222 184.51 347.703 185.198 348.009 185.967C348.315 186.736 348.439 187.565 348.369 188.39C348.3 189.215 348.04 190.013 347.609 190.72C347.179 191.427 346.589 192.024 345.888 192.464C345.187 192.904 344.394 193.175 343.57 193.256C342.746 193.337 341.915 193.225 341.141 192.929C340.368 192.633 339.675 192.162 339.115 191.552C338.555 190.941 338.145 190.21 337.917 189.414L335.067 179.514L337.842 201.557C337.854 201.647 337.847 201.738 337.823 201.825C337.799 201.912 337.758 201.993 337.703 202.065C337.648 202.136 337.579 202.195 337.5 202.24C337.422 202.285 337.335 202.313 337.246 202.324C337.156 202.336 337.065 202.329 336.978 202.305C336.891 202.281 336.81 202.24 336.739 202.185C336.667 202.13 336.608 202.061 336.563 201.982C336.519 201.904 336.49 201.817 336.479 201.728L333.867 180.986L332.04 201.701C332.025 201.881 331.938 202.049 331.799 202.166C331.66 202.283 331.481 202.34 331.3 202.324C331.119 202.309 330.952 202.223 330.835 202.084C330.718 201.945 330.661 201.766 330.676 201.585L332.633 179.391L328.685 189.714C328.35 190.594 327.794 191.372 327.069 191.973C326.344 192.574 325.476 192.977 324.55 193.143C323.623 193.309 322.669 193.233 321.781 192.921C320.893 192.609 320.1 192.073 319.481 191.364L318.737 190.512C318.227 189.927 317.847 189.24 317.623 188.497C317.399 187.754 317.336 186.972 317.439 186.202C317.542 185.433 317.807 184.695 318.218 184.036C318.629 183.378 319.176 182.815 319.821 182.384L333.724 173.125ZM335.408 175.777L339.226 189.039C339.402 189.627 339.712 190.166 340.131 190.614C340.55 191.062 341.067 191.408 341.641 191.623C342.216 191.838 342.832 191.917 343.443 191.854C344.053 191.791 344.641 191.588 345.159 191.26C345.678 190.932 346.113 190.488 346.432 189.964C346.751 189.44 346.944 188.849 346.996 188.237C347.048 187.626 346.958 187.011 346.732 186.44C346.507 185.87 346.153 185.359 345.697 184.948L335.408 175.777ZM332.681 175.45L320.578 183.516C320.098 183.843 319.693 184.269 319.39 184.765C319.087 185.261 318.894 185.816 318.822 186.393C318.75 186.97 318.803 187.555 318.975 188.11C319.147 188.665 319.436 189.177 319.821 189.612L320.565 190.464C321.029 190.995 321.623 191.397 322.289 191.63C322.954 191.864 323.669 191.921 324.363 191.797C325.058 191.673 325.708 191.371 326.252 190.921C326.795 190.471 327.213 189.889 327.465 189.23L332.681 175.45Z" fill="#F8F4F1"/>
<path d="M301.032 248.7H203.529C201.646 248.7 200.12 250.226 200.12 252.109V254.836C200.12 256.719 201.646 258.245 203.529 258.245H301.032C302.915 258.245 304.441 256.719 304.441 254.836V252.109C304.441 250.226 302.915 248.7 301.032 248.7Z" fill="#2E1407"/>
<path d="M249.347 204.544C249.107 203.888 248.672 203.323 248.1 202.923C247.528 202.523 246.847 202.308 246.149 202.307H176.473C175.918 202.307 175.373 202.442 174.882 202.701C174.392 202.96 173.973 203.334 173.66 203.791C173.347 204.248 173.15 204.775 173.086 205.326C173.023 205.876 173.095 206.434 173.295 206.95L193.3 258.218H268.984L249.347 204.544Z" fill="#2E1407"/>
<path fill-rule="evenodd" clip-rule="evenodd" d="M218.835 233.781C218.038 234.141 217.153 234.256 216.291 234.112C215.429 233.969 214.629 233.573 213.991 232.975C213.354 232.376 212.909 231.603 212.712 230.751C212.515 229.9 212.574 229.009 212.883 228.192C213.192 227.374 213.737 226.667 214.448 226.159C215.159 225.651 216.005 225.365 216.879 225.338C217.752 225.311 218.614 225.543 219.356 226.006C220.097 226.469 220.684 227.141 221.044 227.938C221.525 229.005 221.563 230.221 221.149 231.317C220.735 232.412 219.902 233.299 218.835 233.781M219.394 235.022C218.35 235.486 217.191 235.631 216.065 235.438C214.939 235.244 213.895 234.721 213.066 233.935C212.236 233.149 211.659 232.135 211.405 231.02C211.152 229.906 211.235 228.741 211.643 227.674C212.051 226.607 212.766 225.684 213.698 225.023C214.631 224.362 215.738 223.992 216.88 223.959C218.022 223.927 219.149 224.234 220.117 224.841C221.085 225.448 221.851 226.329 222.319 227.372C222.632 228.064 222.806 228.811 222.831 229.57C222.855 230.329 222.729 231.086 222.461 231.797C222.192 232.507 221.786 233.158 221.266 233.711C220.745 234.265 220.121 234.71 219.428 235.022" fill="#F8F4F1"/>
<path d="M281.509 158.861C281.193 157.957 280.604 157.174 279.823 156.619C279.043 156.065 278.11 155.766 277.152 155.765H237.169C236.726 155.765 236.289 155.871 235.895 156.075C235.501 156.279 235.161 156.574 234.905 156.936C234.648 157.298 234.482 157.716 234.421 158.155C234.359 158.595 234.404 159.042 234.551 159.461L256.213 221.126C256.532 222.029 257.122 222.811 257.904 223.364C258.686 223.917 259.619 224.214 260.577 224.215H300.56C301.003 224.215 301.44 224.108 301.834 223.905C302.228 223.701 302.568 223.406 302.824 223.044C303.081 222.682 303.247 222.264 303.308 221.824C303.37 221.385 303.325 220.937 303.178 220.519L281.509 158.861Z" fill="#F99184"/>
<path d="M325.801 157.497C325.801 157.497 314.953 159.311 308.755 150.863C302.557 142.415 307.807 130.346 307.807 130.346L316.521 105.589C316.521 105.589 317.4 111.309 326.605 120.173C335.81 129.037 345.444 129.999 345.444 129.999C345.444 129.999 360.008 122.942 361.126 136.046C361.938 145.306 351.219 148.163 351.219 148.163L353.265 166.456C353.265 166.456 351.397 176.97 338.374 177.195C324.969 177.434 324.628 169.934 324.628 169.934L325.801 157.497Z" fill="#BD4D2D"/>
<path d="M324.975 166.709L325.336 157.456L341.196 151.442L324.975 166.709Z" fill="#2E1407"/>
<path fill-rule="evenodd" clip-rule="evenodd" d="M356.041 135.263C355.964 135.159 355.852 135.089 355.725 135.065C355.599 135.041 355.468 135.065 355.359 135.133L348.916 139.667C348.812 139.744 348.742 139.857 348.719 139.984C348.696 140.111 348.723 140.241 348.793 140.349C348.87 140.453 348.982 140.523 349.109 140.547C349.235 140.571 349.366 140.547 349.475 140.479L355.918 135.945C356.022 135.868 356.092 135.755 356.115 135.628C356.138 135.501 356.111 135.371 356.041 135.263" fill="#311C19"/>
<path fill-rule="evenodd" clip-rule="evenodd" d="M323.462 142.046C323.421 141.976 323.365 141.914 323.299 141.867C323.233 141.819 323.158 141.785 323.078 141.768C322.998 141.752 322.915 141.751 322.835 141.768C322.755 141.785 322.68 141.818 322.614 141.866C322.547 141.914 322.492 141.975 322.45 142.045C322.409 142.116 322.383 142.194 322.373 142.275C322.364 142.356 322.372 142.438 322.396 142.516C322.42 142.594 322.461 142.666 322.514 142.728L322.985 142.387L322.514 142.728L322.562 142.789C322.603 142.844 322.664 142.905 322.739 142.987C322.943 143.189 323.172 143.363 323.421 143.505C323.808 143.739 324.239 143.89 324.687 143.95C325.135 144.01 325.591 143.977 326.026 143.853C326.493 143.731 326.926 143.504 327.291 143.188C327.657 142.872 327.945 142.477 328.133 142.032C328.268 141.742 328.371 141.438 328.44 141.126C328.44 141.003 328.48 140.901 328.487 140.832C328.486 140.803 328.486 140.773 328.487 140.744L327.908 140.703L328.487 140.744C328.493 140.668 328.484 140.591 328.46 140.519C328.436 140.446 328.399 140.379 328.349 140.321C328.299 140.263 328.239 140.215 328.17 140.181C328.102 140.146 328.028 140.126 327.952 140.12C327.876 140.114 327.799 140.123 327.727 140.147C327.654 140.171 327.587 140.209 327.529 140.258C327.471 140.308 327.424 140.369 327.389 140.437C327.355 140.505 327.334 140.579 327.328 140.655V140.655C327.324 140.673 327.324 140.692 327.328 140.71C327.328 140.76 327.315 140.828 327.287 140.914C327.242 141.149 327.169 141.378 327.069 141.596C326.947 141.884 326.761 142.14 326.524 142.344C326.288 142.549 326.008 142.696 325.705 142.776C325.422 142.859 325.124 142.883 324.83 142.845C324.537 142.807 324.254 142.71 324.001 142.557C323.839 142.463 323.692 142.346 323.564 142.21L323.455 142.101" fill="#311C19"/>
<path fill-rule="evenodd" clip-rule="evenodd" d="M324.839 122.539C324.774 122.522 324.706 122.517 324.64 122.526C324.573 122.534 324.509 122.556 324.45 122.59C324.392 122.623 324.341 122.668 324.3 122.721C324.259 122.775 324.229 122.836 324.212 122.901C324.137 123.153 324.075 123.391 324.014 123.623C323.434 125.723 323.066 127.073 322.255 128.396C321.355 129.855 319.896 131.294 316.909 133.571C316.796 133.649 316.709 133.758 316.659 133.886C316.609 134.014 316.599 134.154 316.63 134.287C316.688 134.494 316.825 134.671 317.012 134.778C317.335 134.966 317.678 135.117 318.034 135.228L318.716 135.446C319.355 135.626 319.98 135.854 320.584 136.128C320.644 136.159 320.71 136.177 320.777 136.182C320.844 136.187 320.911 136.179 320.975 136.158C321.039 136.137 321.098 136.104 321.15 136.06C321.201 136.017 321.243 135.963 321.273 135.903C321.303 135.843 321.322 135.778 321.327 135.711C321.332 135.644 321.324 135.576 321.303 135.512C321.282 135.448 321.249 135.389 321.205 135.338C321.161 135.287 321.108 135.245 321.048 135.214C320.385 134.906 319.702 134.644 319.002 134.43L318.43 134.239C318.252 134.178 318.102 134.124 317.98 134.069C320.707 131.942 322.228 130.469 323.189 128.914C324.054 127.343 324.681 125.652 325.05 123.896L325.255 123.16C325.291 123.029 325.274 122.889 325.207 122.77C325.141 122.651 325.031 122.564 324.9 122.526" fill="#311C19"/>
<path d="M315.532 122.928C315 124.558 315.403 126.153 316.432 126.487C317.462 126.821 318.723 125.805 319.255 124.148C319.787 122.492 319.391 120.923 318.362 120.589C317.332 120.255 316.071 121.271 315.532 122.928" fill="#2E1407"/>
<path d="M328.003 128.689C327.471 130.319 327.873 131.914 328.896 132.248C329.919 132.582 331.194 131.567 331.726 129.91C332.258 128.253 331.855 126.685 330.826 126.351C329.796 126.016 328.535 127.032 328.003 128.689" fill="#2E1407"/>
<path d="M346.099 147.911C346.099 148.917 346.397 149.9 346.956 150.737C347.515 151.573 348.31 152.225 349.239 152.61C350.169 152.995 351.191 153.096 352.178 152.899C353.165 152.703 354.071 152.219 354.782 151.507C355.494 150.796 355.978 149.89 356.174 148.903C356.371 147.916 356.27 146.894 355.885 145.964C355.5 145.035 354.848 144.24 354.012 143.681C353.175 143.123 352.192 142.824 351.186 142.824C350.518 142.824 349.856 142.956 349.239 143.211C348.622 143.467 348.061 143.842 347.589 144.314C347.117 144.786 346.742 145.347 346.486 145.964C346.231 146.581 346.099 147.243 346.099 147.911Z" fill="#F8F4F1"/>
<path d="M335.926 226.069L351.186 196.006C351.186 196.006 359.695 173.506 373.85 179.356C387.261 184.906 375.213 216.359 375.213 216.359L364.372 250.56C358.324 269.651 334.276 275.611 320.005 261.592L272.093 214.511L289.67 196.47L335.926 226.069Z" fill="#C0C8D3"/>
<path fill-rule="evenodd" clip-rule="evenodd" d="M351.043 199.566C350.883 199.482 350.696 199.465 350.523 199.519C350.351 199.572 350.207 199.692 350.122 199.852L337.045 224.657L299.271 202.361C299.117 202.292 298.943 202.282 298.783 202.333C298.622 202.385 298.486 202.494 298.401 202.64C298.316 202.786 298.288 202.958 298.323 203.123C298.358 203.289 298.453 203.435 298.589 203.534L336.977 226.198C337.056 226.245 337.144 226.275 337.236 226.287C337.327 226.299 337.42 226.292 337.509 226.267C337.599 226.242 337.683 226.199 337.755 226.14C337.828 226.081 337.888 226.008 337.931 225.926L351.343 200.486C351.427 200.326 351.444 200.14 351.39 199.967C351.337 199.794 351.217 199.65 351.057 199.566" fill="#2E1407"/>
<path fill-rule="evenodd" clip-rule="evenodd" d="M290.067 233.018C289.947 233.153 289.885 233.33 289.896 233.51C289.906 233.69 289.987 233.859 290.122 233.979L316.488 257.571C316.555 257.631 316.634 257.676 316.718 257.706C316.803 257.735 316.893 257.747 316.983 257.742C317.072 257.736 317.16 257.713 317.241 257.674C317.321 257.635 317.393 257.58 317.453 257.513C317.513 257.446 317.558 257.368 317.588 257.283C317.617 257.198 317.629 257.108 317.624 257.019C317.618 256.929 317.595 256.841 317.556 256.761C317.517 256.68 317.462 256.608 317.395 256.548L291.035 232.964C290.968 232.903 290.89 232.856 290.805 232.826C290.72 232.796 290.63 232.784 290.54 232.789C290.45 232.794 290.362 232.817 290.28 232.856C290.199 232.895 290.127 232.951 290.067 233.018" fill="#2E1407"/>
<path d="M279.231 178.471L288.286 198.326L274.874 211.737L257.297 196.935L248.999 190.45C248.823 190.309 248.705 190.108 248.667 189.886C248.628 189.664 248.672 189.436 248.79 189.243C248.908 189.051 249.091 188.908 249.307 188.842C249.522 188.775 249.754 188.79 249.96 188.882L258.224 192.775L247.717 181.027C247.582 180.856 247.512 180.643 247.519 180.426C247.526 180.208 247.609 180 247.753 179.838C247.898 179.675 248.095 179.569 248.31 179.537C248.525 179.505 248.745 179.55 248.931 179.664L260.522 187.696L248.508 173.248C248.35 173.079 248.26 172.858 248.258 172.627C248.255 172.396 248.339 172.173 248.494 172.001C248.648 171.829 248.862 171.722 249.092 171.7C249.322 171.679 249.551 171.744 249.735 171.884L265.622 182.589L255.96 169.382C255.792 169.201 255.703 168.961 255.712 168.714C255.721 168.467 255.827 168.234 256.008 168.066C256.189 167.898 256.429 167.808 256.676 167.817C256.923 167.826 257.156 167.933 257.324 168.113L278.611 185.364L277.513 179.002C277.481 178.783 277.528 178.559 277.646 178.372C277.765 178.185 277.946 178.046 278.158 177.981C278.37 177.916 278.598 177.929 278.801 178.017C279.004 178.106 279.169 178.264 279.265 178.464" fill="#BD4D2D"/>
<path fill-rule="evenodd" clip-rule="evenodd" d="M377.388 224.072C377.226 223.991 377.039 223.978 376.868 224.036C376.697 224.093 376.555 224.217 376.475 224.378L363.99 249.354C363.947 249.435 363.92 249.523 363.912 249.614C363.904 249.705 363.914 249.796 363.941 249.883C363.969 249.97 364.014 250.051 364.073 250.12C364.133 250.19 364.206 250.246 364.287 250.287C364.369 250.327 364.458 250.351 364.549 250.357C364.641 250.362 364.732 250.35 364.818 250.319C364.904 250.289 364.983 250.241 365.051 250.18C365.118 250.118 365.173 250.044 365.211 249.961L377.695 224.999C377.736 224.918 377.76 224.831 377.767 224.741C377.774 224.651 377.762 224.56 377.734 224.475C377.705 224.389 377.66 224.31 377.601 224.242C377.541 224.174 377.469 224.118 377.388 224.078" fill="#2E1407"/>
<path d="M67.6382 202.328L127.115 204.21L122.049 275.284H67.6382V202.328Z" fill="#D5CDA0"/>
<path d="M32.5167 190.238L80.7974 207.782L55.5695 276.081H0L32.5167 190.238Z" fill="#D5CDA0"/>
<path d="M169.436 175.743L142.844 186.652L157.504 247.676L160.231 257.904L203.868 258.245L211.935 258.006C212.093 258.001 212.245 257.941 212.364 257.837C212.483 257.732 212.562 257.589 212.587 257.432C212.612 257.275 212.582 257.115 212.501 256.978C212.421 256.842 212.295 256.737 212.146 256.683L175.572 243.244L169.436 175.743Z" fill="#F59289"/>
<path fill-rule="evenodd" clip-rule="evenodd" d="M194.514 251.788C194.427 251.763 194.337 251.756 194.248 251.766C194.158 251.777 194.072 251.804 193.993 251.848C193.915 251.892 193.846 251.95 193.79 252.021C193.734 252.091 193.693 252.172 193.668 252.258C193.644 252.345 193.636 252.435 193.647 252.524C193.657 252.614 193.685 252.7 193.728 252.779C193.772 252.857 193.831 252.926 193.901 252.982C193.972 253.038 194.052 253.079 194.139 253.104L211.866 258.218C212.041 258.267 212.228 258.246 212.387 258.157C212.545 258.069 212.662 257.922 212.712 257.747C212.762 257.573 212.74 257.386 212.652 257.227C212.563 257.068 212.416 256.951 212.241 256.902L194.514 251.788ZM188.036 252.811C187.862 252.761 187.675 252.783 187.516 252.871C187.357 252.959 187.24 253.107 187.191 253.281C187.141 253.456 187.163 253.643 187.251 253.801C187.339 253.96 187.487 254.077 187.661 254.127L201.98 258.218C202.154 258.267 202.341 258.246 202.5 258.157C202.658 258.069 202.775 257.922 202.825 257.747C202.875 257.573 202.853 257.386 202.765 257.227C202.677 257.068 202.529 256.951 202.355 256.902L188.036 252.811Z" fill="#2E1407"/>
<path d="M68.859 97.1542C56.586 109.884 28.9785 200.152 28.9785 200.152L125.458 228.244L138.413 188.697L172.505 177.447C172.505 177.447 173.234 131.873 166.198 113.539C164.576 109.263 161.954 105.438 158.55 102.383C155.147 99.3285 151.062 97.1334 146.636 95.9815L116.533 88.5699C116.533 88.5699 88.7754 76.4742 68.8386 97.1542" fill="#5A74CA"/>
<path d="M142.503 95.2862L115.23 88.127C115.23 88.127 112.502 112.332 128.525 114.719C144.549 117.105 142.503 95.2862 142.503 95.2862Z" fill="#F8F4F1"/>
<path fill-rule="evenodd" clip-rule="evenodd" d="M156.023 135.208C156.108 135.237 156.187 135.283 156.254 135.343C156.322 135.402 156.377 135.475 156.416 135.556C156.456 135.637 156.478 135.726 156.483 135.816C156.488 135.906 156.476 135.996 156.445 136.081L138.377 187.559C138.347 187.644 138.3 187.722 138.24 187.789C138.18 187.855 138.108 187.909 138.027 187.948C137.946 187.987 137.858 188.009 137.768 188.014C137.678 188.018 137.589 188.005 137.504 187.975C137.419 187.945 137.342 187.899 137.275 187.839C137.208 187.779 137.154 187.706 137.115 187.625C137.077 187.544 137.054 187.456 137.05 187.366C137.045 187.277 137.058 187.187 137.088 187.103L155.157 135.624C155.217 135.454 155.342 135.316 155.504 135.238C155.666 135.16 155.853 135.149 156.023 135.208" fill="#2E1407"/>
<path d="M97.503 68.0133C104.321 86.0819 127.845 75.8544 127.845 75.8544L162.959 68.0133C162.959 68.0133 187.164 56.763 178.641 34.6034C175.287 25.8759 163.641 23.0122 163.641 23.0122C163.641 23.0122 158.527 12.7847 144.209 12.7847C129.89 12.7847 124.435 20.9667 124.435 20.9667C124.435 20.9667 113.601 16.0779 105.344 26.7623C99.5485 34.2625 102.958 45.5127 102.958 45.5127C102.958 45.5127 91.5914 52.3311 97.503 68.0133Z" fill="#2E1407"/>
<path d="M144.031 86.6952C144.031 86.6952 154.115 91.0794 162.181 84.3838C170.247 77.6881 168.072 64.706 168.072 64.706L165.604 38.5781C162.16 37.0987 158.419 36.4372 154.677 36.6454C150.934 36.8536 147.29 37.9258 144.031 39.7781C132.951 46.1465 131.635 55.2626 131.635 55.2626C131.635 55.2626 119.219 44.8919 114.93 57.3081C111.903 66.0901 121.612 71.4562 121.612 71.4562L115.169 88.7066C115.169 88.7066 114.432 99.3568 127.012 102.732C139.967 106.202 142.108 99.0091 142.108 99.0091L144.031 86.6952Z" fill="#F59289"/>
<path d="M142.607 95.8315L144.488 86.7631L130.559 77.0947L142.607 95.8315Z" fill="#2E1407"/>
<path fill-rule="evenodd" clip-rule="evenodd" d="M120.044 57.7993C120.147 57.7113 120.28 57.667 120.415 57.6759C120.55 57.6849 120.676 57.7463 120.767 57.847L125.921 63.8063C125.966 63.8573 126 63.9167 126.022 63.981C126.044 64.0452 126.053 64.1132 126.049 64.1809C126.044 64.2487 126.026 64.3149 125.996 64.3758C125.966 64.4367 125.925 64.4911 125.874 64.5358C125.823 64.5806 125.763 64.6149 125.699 64.6367C125.635 64.6586 125.567 64.6675 125.499 64.6631C125.431 64.6586 125.365 64.6409 125.304 64.6109C125.243 64.5809 125.189 64.5391 125.144 64.4881L120.044 58.5221C119.957 58.4184 119.914 58.2847 119.924 58.1496C119.934 58.0145 119.997 57.8887 120.098 57.7993" fill="#311C19"/>
<path fill-rule="evenodd" clip-rule="evenodd" d="M146.45 70.8632C146.465 70.7095 146.417 70.5564 146.319 70.4374C146.22 70.3185 146.079 70.2436 145.925 70.2291C145.771 70.2147 145.618 70.2618 145.499 70.3603C145.38 70.4588 145.305 70.6004 145.291 70.7541L145.871 70.8087L145.291 70.7541V70.9041C145.291 70.9723 145.291 71.061 145.291 71.1701C145.31 71.4532 145.365 71.7327 145.455 72.0019C145.596 72.4302 145.824 72.8249 146.124 73.1615C146.425 73.4982 146.791 73.7695 147.2 73.9588C147.635 74.1694 148.112 74.2788 148.595 74.2788C149.077 74.2788 149.554 74.1694 149.989 73.9588C150.279 73.8236 150.554 73.6566 150.807 73.461C150.909 73.386 150.984 73.3178 151.039 73.2701L151.107 73.2156L150.691 72.8065L151.107 73.2156C151.171 73.1637 151.223 73.0992 151.26 73.026C151.297 72.9528 151.318 72.8727 151.322 72.7908C151.326 72.7089 151.313 72.6271 151.284 72.5505C151.254 72.474 151.209 72.4045 151.151 72.3465C151.093 72.2885 151.024 72.2434 150.947 72.2139C150.871 72.1845 150.789 72.1714 150.707 72.1755C150.625 72.1797 150.545 72.201 150.472 72.238C150.398 72.275 150.334 72.327 150.282 72.3905V72.3905H150.241L150.084 72.5269C149.897 72.6673 149.696 72.7884 149.484 72.8883C149.205 73.0245 148.898 73.0953 148.588 73.0953C148.277 73.0953 147.97 73.0245 147.691 72.8883C147.421 72.7669 147.18 72.5909 146.981 72.3715C146.783 72.152 146.632 71.8938 146.539 71.6132C146.482 71.4365 146.447 71.2532 146.436 71.0678C146.434 71.0156 146.434 70.9632 146.436 70.911V70.8769" fill="#311C19"/>
<path fill-rule="evenodd" clip-rule="evenodd" d="M153.453 53.0123C153.587 53.0104 153.717 53.0616 153.814 53.1548C153.911 53.2479 153.968 53.3756 153.971 53.51C153.971 53.7691 153.971 54.0214 153.971 54.26C154.019 56.4351 154.053 57.8396 154.523 59.3124C155.042 60.942 156.112 62.7216 158.451 65.6262C158.543 65.7283 158.602 65.8559 158.62 65.9922C158.638 66.1285 158.615 66.2671 158.553 66.3899C158.446 66.5768 158.27 66.714 158.062 66.7717C157.705 66.8762 157.336 66.938 156.964 66.9558L156.283 67.0103C155.619 67.04 154.958 67.1174 154.305 67.2422C154.24 67.2583 154.172 67.2611 154.105 67.2506C154.039 67.24 153.975 67.2163 153.918 67.1807C153.861 67.1451 153.811 67.0984 153.772 67.0434C153.733 66.9884 153.706 66.9261 153.692 66.8603C153.661 66.7283 153.684 66.5895 153.755 66.4745C153.827 66.3594 153.941 66.2775 154.073 66.2467C154.803 66.1068 155.541 66.0202 156.283 65.9876L156.883 65.9398C157.067 65.9398 157.23 65.9058 157.36 65.8853C155.205 63.158 154.107 61.3647 153.555 59.6192C153.094 57.8857 152.892 56.0936 152.955 54.3009C152.955 54.0555 152.955 53.7964 152.955 53.5373C152.952 53.4699 152.963 53.4026 152.987 53.3395C153.011 53.2763 153.047 53.2186 153.093 53.1696C153.14 53.1207 153.195 53.0815 153.257 53.0545C153.319 53.0275 153.385 53.0131 153.453 53.0123" fill="#311C19"/>
<path d="M160.184 52.6857C161.261 52.6039 162.229 53.9267 162.359 55.6381C162.489 57.3495 161.677 58.795 160.627 58.8768C159.577 58.9586 158.582 57.629 158.452 55.9176C158.323 54.2062 159.1 52.7607 160.184 52.6857Z" fill="#2E1407"/>
<path d="M146.669 55.2213C147.753 55.1463 148.715 56.4691 148.851 58.1805C148.987 59.8919 148.169 61.3374 147.119 61.4124C146.069 61.4874 145.074 60.1646 144.937 58.46C144.801 56.7554 145.619 55.3031 146.669 55.2213Z" fill="#2E1407"/>
<path d="M91.509 177.952L66.1379 117.773C60.1309 102.091 77.0472 87.4315 91.7271 95.6477L94.0931 96.9772L123.412 157.32L177.959 150.16L199.137 139.701C199.287 139.629 199.459 139.615 199.62 139.661C199.78 139.707 199.918 139.811 200.008 139.952C200.097 140.094 200.131 140.263 200.104 140.428C200.076 140.592 199.989 140.741 199.859 140.846L193.273 146.083H216.878C217.059 146.06 217.241 146.111 217.385 146.222C217.529 146.334 217.622 146.499 217.645 146.68C217.668 146.86 217.617 147.043 217.506 147.187C217.394 147.331 217.229 147.424 217.048 147.447L201.114 151.538L217.757 151.04C217.847 151.027 217.938 151.033 218.026 151.055C218.113 151.078 218.195 151.118 218.268 151.172C218.34 151.227 218.401 151.295 218.446 151.373C218.492 151.451 218.522 151.537 218.535 151.626C218.547 151.716 218.542 151.807 218.519 151.894C218.497 151.982 218.457 152.064 218.403 152.136C218.348 152.209 218.28 152.269 218.202 152.315C218.124 152.361 218.038 152.391 217.948 152.404L203.841 155.99L216.885 153.563C217.084 153.525 217.289 153.533 217.484 153.584C217.68 153.636 217.862 153.73 218.017 153.861C218.171 153.991 218.295 154.155 218.379 154.339C218.463 154.523 218.504 154.724 218.501 154.926V157.497C218.508 157.646 218.466 157.794 218.381 157.917C218.296 158.041 218.173 158.132 218.03 158.179L181 170.302L123.603 191.793C117.501 194.076 110.753 193.911 104.771 191.331C98.7885 188.751 94.0362 183.957 91.509 177.952" fill="#F59289"/>
<path fill-rule="evenodd" clip-rule="evenodd" d="M218.514 155.814C218.535 155.901 218.537 155.992 218.522 156.081C218.507 156.17 218.474 156.255 218.426 156.331C218.378 156.407 218.315 156.472 218.241 156.524C218.167 156.576 218.084 156.612 217.996 156.632L202.996 160.041C202.906 160.061 202.814 160.063 202.723 160.048C202.633 160.032 202.546 159.999 202.469 159.95C202.391 159.901 202.324 159.837 202.271 159.762C202.218 159.687 202.181 159.602 202.161 159.512C202.14 159.423 202.138 159.33 202.154 159.24C202.169 159.149 202.203 159.063 202.252 158.985C202.301 158.908 202.365 158.841 202.44 158.788C202.515 158.735 202.599 158.697 202.689 158.677L217.689 155.268C217.777 155.248 217.867 155.245 217.956 155.26C218.044 155.275 218.128 155.307 218.204 155.354C218.28 155.402 218.346 155.464 218.398 155.537C218.45 155.61 218.487 155.692 218.508 155.779" fill="#2E1407"/>
<path d="M65.2181 120.569C63.0561 115.485 62.995 109.751 65.0483 104.623C67.1016 99.4939 71.1022 95.3868 76.1753 93.1995C81.2484 91.0121 86.9812 90.9226 92.1202 92.9504C97.2591 94.9781 101.386 98.9583 103.599 104.02L119.322 139.96L81.139 158.029L65.2181 120.569Z" fill="#5A74CA"/>
<path fill-rule="evenodd" clip-rule="evenodd" d="M98.907 109.333C98.9871 109.291 99.0745 109.267 99.1642 109.259C99.2539 109.252 99.3442 109.263 99.4298 109.291C99.5153 109.319 99.5945 109.363 99.6628 109.422C99.7311 109.481 99.787 109.552 99.8275 109.633L123.351 155.997C123.392 156.078 123.416 156.165 123.423 156.255C123.43 156.344 123.419 156.434 123.391 156.52C123.364 156.605 123.319 156.684 123.261 156.753C123.202 156.821 123.131 156.877 123.051 156.918C122.971 156.959 122.883 156.983 122.794 156.99C122.704 156.997 122.614 156.986 122.528 156.958C122.443 156.931 122.364 156.886 122.295 156.828C122.227 156.769 122.171 156.698 122.13 156.618L98.607 110.253C98.5659 110.173 98.5411 110.086 98.5339 109.996C98.5267 109.906 98.5374 109.816 98.5653 109.73C98.5932 109.645 98.6377 109.566 98.6964 109.497C98.7551 109.429 98.8266 109.373 98.907 109.333" fill="#2E1407"/>
<path fill-rule="evenodd" clip-rule="evenodd" d="M74.0539 138.637C74.2194 138.567 74.4062 138.564 74.5736 138.631C74.7409 138.697 74.8752 138.827 74.9471 138.992L91.652 178.197C91.7235 178.364 91.7259 178.552 91.6588 178.72C91.5916 178.888 91.4605 179.023 91.2941 179.094C91.1277 179.166 90.9398 179.168 90.7716 179.101C90.6035 179.034 90.4689 178.903 90.3975 178.736L73.6789 139.531C73.6085 139.364 73.607 139.177 73.6748 139.009C73.7425 138.842 73.874 138.708 74.0402 138.637" fill="#2E1407"/>
<path fill-rule="evenodd" clip-rule="evenodd" d="M402.378 61.9792C402.409 61.9474 402.446 61.9222 402.487 61.905C402.528 61.8878 402.572 61.8789 402.617 61.8789C402.661 61.8789 402.705 61.8878 402.746 61.905C402.787 61.9222 402.824 61.9474 402.855 61.9792L402.623 62.2315L402.855 61.9792L402.917 62.0337L403.142 62.2519L404.014 63.111C404.079 63.1752 404.115 63.2623 404.115 63.3531C404.115 63.4439 404.079 63.5309 404.014 63.5951C403.95 63.6593 403.863 63.6954 403.772 63.6954C403.682 63.6954 403.595 63.6593 403.53 63.5951L402.685 62.7224L402.467 62.5042L402.405 62.4497C402.373 62.418 402.348 62.3803 402.331 62.3387C402.313 62.2972 402.304 62.2526 402.304 62.2076C402.304 62.1626 402.313 62.118 402.331 62.0765C402.348 62.035 402.373 61.9972 402.405 61.9656M405.93 65.4906C405.962 65.4587 406 65.4333 406.041 65.416C406.083 65.3987 406.127 65.3898 406.172 65.3898C406.217 65.3898 406.262 65.3987 406.304 65.416C406.345 65.4333 406.383 65.4587 406.414 65.4906C407.096 66.1725 407.853 66.9907 408.678 67.8839C408.71 67.9156 408.735 67.9533 408.753 67.9948C408.77 68.0364 408.779 68.0809 408.779 68.1259C408.779 68.1709 408.77 68.2155 408.753 68.257C408.735 68.2986 408.71 68.3363 408.678 68.368C408.646 68.3999 408.609 68.4253 408.567 68.4426C408.526 68.4599 408.481 68.4688 408.436 68.4688C408.391 68.4688 408.347 68.4599 408.305 68.4426C408.263 68.4253 408.226 68.3999 408.194 68.368C407.369 67.4816 406.612 66.6838 405.937 65.9816C405.874 65.9167 405.839 65.8299 405.839 65.7395C405.839 65.6491 405.874 65.5623 405.937 65.4975M410.471 70.3521C410.503 70.3204 410.54 70.2951 410.581 70.2779C410.622 70.2607 410.666 70.2518 410.71 70.2518C410.754 70.2518 410.798 70.2607 410.839 70.2779C410.88 70.2951 410.918 70.3204 410.949 70.3521C411.631 71.1362 412.401 71.9749 413.171 72.8545C413.203 72.8876 413.228 72.9269 413.244 72.97C413.261 73.013 413.268 73.0589 413.266 73.1049C413.264 73.1509 413.253 73.196 413.233 73.2375C413.213 73.2791 413.185 73.3161 413.151 73.3465C413.116 73.3769 413.076 73.4 413.032 73.4144C412.988 73.4288 412.942 73.4342 412.896 73.4303C412.851 73.4264 412.806 73.4132 412.765 73.3916C412.725 73.3699 412.689 73.3403 412.66 73.3045C411.887 72.4226 411.149 71.5908 410.444 70.8089C410.412 70.7773 410.387 70.7395 410.369 70.698C410.352 70.6565 410.343 70.6119 410.343 70.5669C410.343 70.5219 410.352 70.4773 410.369 70.4358C410.387 70.3942 410.412 70.3565 410.444 70.3248M414.842 75.3363C414.876 75.3071 414.915 75.2849 414.957 75.2711C415 75.2573 415.045 75.2522 415.089 75.256C415.134 75.2598 415.177 75.2725 415.217 75.2933C415.256 75.3141 415.291 75.3427 415.319 75.3772C416.015 76.1954 416.728 77.0477 417.46 77.9341C417.517 78.0039 417.543 78.0932 417.534 78.1826C417.526 78.2719 417.482 78.3542 417.412 78.4114C417.378 78.4403 417.339 78.462 417.296 78.4752C417.253 78.4885 417.208 78.493 417.164 78.4885C417.119 78.4841 417.076 78.4707 417.037 78.4493C416.998 78.4278 416.963 78.3987 416.935 78.3637C416.208 77.4818 415.497 76.6341 414.801 75.8204C414.772 75.7861 414.749 75.7463 414.735 75.7032C414.722 75.6602 414.716 75.6149 414.72 75.5698C414.724 75.5248 414.737 75.4809 414.758 75.4408C414.778 75.4008 414.807 75.3652 414.842 75.3363M419.083 80.4637C419.154 80.408 419.243 80.3824 419.333 80.3927C419.422 80.4029 419.504 80.448 419.56 80.5183C420.242 81.3638 420.924 82.2365 421.606 83.1297C421.654 83.2015 421.674 83.2892 421.66 83.3749C421.646 83.4606 421.601 83.5378 421.532 83.5909C421.463 83.6439 421.377 83.6687 421.291 83.6603C421.204 83.6519 421.124 83.6109 421.067 83.5456C420.385 82.6592 419.703 81.7865 419.022 80.9478C418.965 80.8761 418.94 80.7852 418.95 80.6946C418.96 80.6041 419.005 80.5212 419.076 80.4637M423.167 85.707C423.203 85.6802 423.244 85.6606 423.287 85.6495C423.33 85.6384 423.376 85.6359 423.42 85.6423C423.464 85.6486 423.507 85.6636 423.545 85.6864C423.584 85.7092 423.618 85.7394 423.644 85.7752C424.299 86.648 424.958 87.5389 425.622 88.448C425.649 88.4839 425.669 88.525 425.68 88.5687C425.691 88.6125 425.693 88.6581 425.686 88.7027C425.679 88.7473 425.663 88.79 425.639 88.8283C425.615 88.8665 425.584 88.8995 425.547 88.9253C425.474 88.9767 425.384 88.9976 425.296 88.9836C425.208 88.9696 425.129 88.9218 425.076 88.8503C424.413 87.9412 423.754 87.0525 423.099 86.1843C423.071 86.1489 423.051 86.1082 423.039 86.0646C423.028 86.0211 423.025 85.9757 423.031 85.9311C423.038 85.8866 423.053 85.8437 423.076 85.8052C423.1 85.7667 423.131 85.7333 423.167 85.707ZM427.095 91.0799C427.131 91.0539 427.172 91.0354 427.215 91.0254C427.258 91.0155 427.303 91.0143 427.347 91.0219C427.391 91.0295 427.433 91.0458 427.47 91.0698C427.508 91.0938 427.54 91.1251 427.565 91.1617C428.201 92.0708 428.835 92.9799 429.467 93.8891C429.493 93.9256 429.511 93.9669 429.52 94.0105C429.53 94.0541 429.531 94.0991 429.522 94.143C429.514 94.1868 429.497 94.2286 429.472 94.2658C429.448 94.303 429.416 94.3348 429.379 94.3595C429.342 94.3853 429.3 94.4036 429.256 94.4131C429.211 94.4226 429.166 94.4233 429.121 94.415C429.077 94.4068 429.035 94.3898 428.997 94.365C428.959 94.3403 428.927 94.3083 428.901 94.2709C428.274 93.3436 427.64 92.4299 427.013 91.5435C426.987 91.5069 426.968 91.4654 426.958 91.4216C426.948 91.3777 426.947 91.3322 426.954 91.2878C426.962 91.2435 426.978 91.201 427.002 91.163C427.026 91.125 427.058 91.0921 427.095 91.0663M430.845 96.5687C430.921 96.52 431.013 96.5034 431.101 96.5226C431.189 96.5417 431.266 96.5951 431.315 96.6709C431.924 97.5801 432.524 98.5142 433.115 99.4733C433.14 99.511 433.157 99.5534 433.165 99.5978C433.172 99.6423 433.171 99.6879 433.161 99.7318C433.151 99.7758 433.132 99.8172 433.105 99.8537C433.079 99.8901 433.045 99.9207 433.006 99.9437C432.929 99.99 432.837 100.005 432.749 99.9842C432.661 99.9638 432.585 99.9102 432.536 99.8347C431.949 98.8937 431.349 97.9596 430.749 97.0459C430.699 96.9697 430.682 96.8771 430.699 96.7878C430.717 96.6986 430.769 96.6199 430.845 96.5687M434.37 102.269C434.448 102.223 434.541 102.21 434.628 102.231C434.716 102.253 434.792 102.308 434.84 102.385C435.404 103.335 435.967 104.294 436.531 105.262C436.566 105.339 436.571 105.426 436.545 105.506C436.519 105.587 436.465 105.655 436.392 105.697C436.319 105.74 436.233 105.753 436.15 105.736C436.068 105.719 435.994 105.671 435.945 105.603C435.386 104.635 434.822 103.68 434.254 102.739C434.23 102.701 434.215 102.658 434.208 102.614C434.201 102.569 434.203 102.524 434.214 102.48C434.224 102.436 434.244 102.395 434.271 102.359C434.297 102.322 434.331 102.292 434.37 102.269M437.704 108.037C437.743 108.015 437.786 108 437.831 107.995C437.876 107.99 437.922 107.993 437.965 108.006C438.008 108.019 438.048 108.04 438.083 108.069C438.118 108.098 438.147 108.133 438.168 108.173C438.699 109.142 439.222 110.121 439.736 111.112C439.777 111.192 439.785 111.284 439.758 111.37C439.731 111.455 439.672 111.527 439.593 111.569C439.512 111.61 439.418 111.618 439.332 111.592C439.245 111.565 439.172 111.505 439.129 111.426C438.618 110.444 438.099 109.462 437.568 108.501C437.546 108.461 437.532 108.418 437.527 108.374C437.523 108.329 437.527 108.284 437.539 108.241C437.552 108.198 437.573 108.157 437.601 108.122C437.63 108.088 437.664 108.059 437.704 108.037M440.786 113.935C440.826 113.915 440.87 113.904 440.915 113.901C440.959 113.898 441.004 113.904 441.047 113.919C441.089 113.933 441.128 113.956 441.162 113.986C441.196 114.015 441.223 114.051 441.243 114.092C441.734 115.087 442.211 116.092 442.674 117.106C442.711 117.188 442.714 117.281 442.682 117.366C442.65 117.45 442.586 117.518 442.504 117.556C442.464 117.575 442.42 117.586 442.376 117.588C442.331 117.591 442.286 117.584 442.244 117.569C442.202 117.553 442.164 117.53 442.131 117.5C442.099 117.469 442.072 117.433 442.054 117.392C441.599 116.383 441.124 115.383 440.629 114.392C440.609 114.352 440.598 114.308 440.595 114.263C440.592 114.218 440.598 114.173 440.612 114.131C440.627 114.088 440.65 114.049 440.68 114.016C440.709 113.982 440.745 113.955 440.786 113.935M443.581 119.976C443.622 119.958 443.666 119.948 443.71 119.948C443.755 119.947 443.799 119.955 443.84 119.972C443.881 119.988 443.919 120.013 443.951 120.044C443.982 120.075 444.007 120.112 444.024 120.153C444.479 121.176 444.904 122.206 445.3 123.242C445.331 123.325 445.329 123.418 445.293 123.499C445.257 123.581 445.191 123.645 445.109 123.678C445.067 123.696 445.022 123.705 444.977 123.705C444.932 123.705 444.888 123.695 444.846 123.678C444.805 123.66 444.767 123.634 444.736 123.601C444.705 123.568 444.681 123.53 444.665 123.488C444.256 122.465 443.834 121.442 443.404 120.419C443.386 120.379 443.376 120.335 443.376 120.29C443.375 120.246 443.383 120.202 443.4 120.16C443.416 120.119 443.441 120.082 443.472 120.05C443.503 120.018 443.54 119.993 443.581 119.976M446.043 126.153C446.128 126.125 446.221 126.13 446.302 126.168C446.383 126.206 446.447 126.274 446.479 126.358C446.861 127.408 447.222 128.46 447.563 129.515C447.577 129.56 447.582 129.607 447.578 129.653C447.573 129.7 447.56 129.745 447.538 129.787C447.516 129.828 447.486 129.865 447.45 129.895C447.414 129.925 447.373 129.948 447.328 129.962C447.283 129.975 447.236 129.98 447.189 129.976C447.143 129.972 447.097 129.958 447.056 129.936C447.014 129.915 446.978 129.885 446.948 129.849C446.918 129.813 446.895 129.771 446.881 129.726C446.54 128.676 446.181 127.631 445.804 126.59C445.773 126.505 445.778 126.411 445.816 126.329C445.854 126.248 445.924 126.184 446.009 126.153M448.088 132.481C448.131 132.467 448.176 132.463 448.221 132.467C448.266 132.472 448.31 132.485 448.349 132.507C448.389 132.528 448.423 132.558 448.451 132.593C448.479 132.629 448.499 132.669 448.511 132.713C448.818 133.783 449.111 134.861 449.377 135.938C449.388 135.981 449.391 136.026 449.385 136.071C449.378 136.115 449.363 136.158 449.341 136.197C449.318 136.235 449.287 136.269 449.252 136.296C449.216 136.323 449.175 136.343 449.131 136.354C449.043 136.374 448.95 136.36 448.872 136.312C448.794 136.265 448.738 136.19 448.715 136.101C448.45 135.031 448.163 133.967 447.856 132.904C447.844 132.861 447.84 132.816 447.845 132.771C447.85 132.727 447.863 132.684 447.885 132.644C447.906 132.605 447.935 132.57 447.97 132.542C448.005 132.514 448.045 132.493 448.088 132.481ZM449.718 138.931C449.762 138.921 449.807 138.92 449.852 138.927C449.896 138.935 449.938 138.951 449.976 138.975C450.014 138.999 450.047 139.031 450.073 139.068C450.099 139.105 450.117 139.146 450.127 139.19C450.352 140.288 450.556 141.379 450.741 142.477C450.754 142.567 450.732 142.659 450.678 142.733C450.625 142.807 450.544 142.857 450.454 142.872C450.41 142.879 450.365 142.877 450.321 142.866C450.278 142.855 450.237 142.836 450.2 142.81C450.164 142.783 450.134 142.749 450.111 142.711C450.088 142.673 450.072 142.63 450.066 142.586C449.888 141.502 449.684 140.417 449.459 139.333C449.449 139.29 449.448 139.245 449.455 139.201C449.463 139.157 449.479 139.115 449.503 139.078C449.528 139.04 449.559 139.008 449.596 138.983C449.633 138.957 449.674 138.94 449.718 138.931ZM450.829 145.49C450.874 145.485 450.92 145.488 450.963 145.5C451.007 145.512 451.047 145.533 451.083 145.56C451.118 145.588 451.148 145.623 451.17 145.663C451.192 145.702 451.206 145.745 451.211 145.79C451.341 146.895 451.45 148.006 451.531 149.118C451.538 149.208 451.508 149.297 451.448 149.366C451.419 149.4 451.383 149.427 451.343 149.447C451.303 149.467 451.259 149.479 451.214 149.482C451.124 149.489 451.035 149.459 450.966 149.399C450.898 149.34 450.856 149.256 450.85 149.165C450.775 148.068 450.666 146.97 450.536 145.872C450.529 145.828 450.532 145.782 450.543 145.739C450.554 145.695 450.574 145.655 450.601 145.619C450.629 145.583 450.663 145.553 450.702 145.531C450.741 145.509 450.785 145.495 450.829 145.49M451.341 152.125C451.385 152.123 451.429 152.13 451.471 152.145C451.513 152.161 451.551 152.185 451.583 152.215C451.616 152.246 451.642 152.282 451.66 152.323C451.678 152.364 451.687 152.407 451.688 152.452C451.688 153.57 451.688 154.688 451.688 155.8C451.687 155.844 451.676 155.888 451.657 155.929C451.638 155.97 451.612 156.006 451.579 156.037C451.546 156.067 451.507 156.091 451.465 156.106C451.423 156.122 451.379 156.129 451.334 156.127C451.289 156.127 451.245 156.118 451.204 156.1C451.162 156.083 451.125 156.057 451.095 156.024C451.064 155.991 451.04 155.953 451.025 155.911C451.01 155.869 451.004 155.824 451.006 155.779C451.006 154.675 451.006 153.577 451.006 152.472C451.006 152.428 451.013 152.383 451.03 152.341C451.046 152.3 451.07 152.262 451.101 152.229C451.133 152.197 451.17 152.171 451.211 152.153C451.252 152.135 451.296 152.125 451.341 152.125M451.177 158.772C451.221 158.776 451.265 158.788 451.305 158.809C451.344 158.829 451.38 158.857 451.408 158.892C451.437 158.926 451.458 158.966 451.471 159.009C451.484 159.051 451.488 159.096 451.484 159.141C451.436 159.693 451.381 160.252 451.32 160.804C451.259 161.357 451.184 161.943 451.102 162.502C451.096 162.547 451.082 162.59 451.059 162.629C451.036 162.668 451.007 162.703 450.971 162.73C450.935 162.758 450.894 162.778 450.851 162.79C450.807 162.801 450.761 162.805 450.717 162.799C450.672 162.793 450.629 162.778 450.59 162.756C450.55 162.733 450.516 162.703 450.489 162.667C450.461 162.632 450.441 162.591 450.429 162.547C450.417 162.504 450.414 162.458 450.42 162.413C450.495 161.854 450.57 161.288 450.631 160.729C450.693 160.17 450.754 159.632 450.802 159.079C450.805 159.035 450.818 158.991 450.838 158.952C450.859 158.912 450.887 158.877 450.921 158.848C450.955 158.819 450.995 158.798 451.038 158.785C451.081 158.772 451.126 158.768 451.17 158.772M450.27 165.468C450.359 165.486 450.437 165.538 450.488 165.614C450.539 165.689 450.559 165.781 450.543 165.87C450.334 166.989 450.106 168.1 449.861 169.205C449.838 169.291 449.783 169.365 449.707 169.411C449.63 169.457 449.539 169.471 449.452 169.45C449.408 169.44 449.367 169.422 449.33 169.396C449.293 169.37 449.262 169.337 449.239 169.299C449.215 169.261 449.2 169.218 449.193 169.174C449.186 169.13 449.188 169.084 449.2 169.041C449.459 167.957 449.697 166.852 449.881 165.741C449.898 165.652 449.949 165.574 450.023 165.523C450.097 165.472 450.188 165.452 450.277 165.468M448.729 172.075C448.816 172.1 448.889 172.159 448.933 172.238C448.976 172.318 448.986 172.411 448.961 172.498C448.641 173.589 448.279 174.673 447.931 175.743C447.9 175.828 447.838 175.898 447.756 175.938C447.675 175.977 447.581 175.983 447.495 175.955C447.41 175.925 447.341 175.864 447.301 175.783C447.262 175.703 447.255 175.61 447.284 175.525C447.643 174.461 447.984 173.389 448.306 172.307C448.318 172.263 448.338 172.223 448.366 172.187C448.394 172.152 448.429 172.123 448.468 172.101C448.508 172.079 448.551 172.066 448.596 172.061C448.641 172.057 448.686 172.062 448.729 172.075M446.643 178.477C446.684 178.494 446.722 178.519 446.755 178.55C446.787 178.581 446.812 178.618 446.83 178.659C446.848 178.701 446.857 178.745 446.858 178.79C446.858 178.835 446.85 178.879 446.834 178.921C446.418 179.978 445.975 181.028 445.511 182.057C445.474 182.14 445.405 182.205 445.32 182.238C445.235 182.271 445.141 182.268 445.057 182.231C444.974 182.194 444.909 182.125 444.877 182.04C444.844 181.955 444.847 181.861 444.884 181.778C445.338 180.755 445.777 179.718 446.2 178.668C446.215 178.626 446.239 178.588 446.271 178.555C446.302 178.522 446.339 178.496 446.38 178.478C446.422 178.461 446.466 178.451 446.511 178.451C446.557 178.451 446.601 178.46 446.643 178.477M443.915 184.682C443.956 184.702 443.992 184.729 444.021 184.763C444.051 184.797 444.073 184.836 444.087 184.879C444.101 184.921 444.107 184.966 444.103 185.011C444.099 185.056 444.086 185.099 444.065 185.139C443.554 186.155 443.015 187.185 442.463 188.146C442.416 188.219 442.343 188.272 442.258 188.293C442.174 188.314 442.084 188.302 442.008 188.26C441.932 188.217 441.876 188.147 441.85 188.063C441.824 187.98 441.831 187.89 441.87 187.812C442.415 186.835 442.945 185.841 443.459 184.832C443.478 184.792 443.506 184.756 443.539 184.726C443.573 184.697 443.612 184.674 443.655 184.66C443.698 184.646 443.743 184.641 443.787 184.645C443.832 184.648 443.876 184.661 443.915 184.682ZM398.914 190.594C398.917 190.549 398.928 190.505 398.948 190.465C398.968 190.424 398.995 190.388 399.028 190.358C399.062 190.329 399.101 190.306 399.144 190.291C399.186 190.277 399.231 190.27 399.276 190.273C399.828 190.273 400.387 190.341 400.96 190.403C401.555 190.465 402.145 190.57 402.726 190.716C402.814 190.739 402.89 190.795 402.937 190.873C402.984 190.951 402.999 191.044 402.978 191.132C402.967 191.176 402.947 191.217 402.92 191.253C402.893 191.288 402.86 191.319 402.821 191.341C402.782 191.364 402.74 191.379 402.695 191.385C402.651 191.392 402.606 191.389 402.562 191.378C402.013 191.237 401.455 191.136 400.892 191.078C400.333 191.023 399.78 190.982 399.235 190.948C399.145 190.943 399.062 190.903 399.002 190.837C398.942 190.77 398.911 190.683 398.914 190.594ZM396.255 190.594C396.257 190.683 396.225 190.77 396.166 190.837C396.106 190.904 396.024 190.946 395.935 190.955C394.836 191.013 393.743 191.143 392.662 191.344C392.618 191.354 392.573 191.354 392.529 191.346C392.485 191.338 392.444 191.321 392.407 191.296C392.37 191.271 392.338 191.239 392.314 191.201C392.29 191.164 392.274 191.122 392.266 191.078C392.256 191.034 392.256 190.988 392.264 190.944C392.272 190.9 392.289 190.858 392.314 190.82C392.338 190.782 392.371 190.75 392.408 190.725C392.446 190.701 392.488 190.684 392.532 190.676C393.643 190.471 394.766 190.337 395.894 190.273C395.939 190.27 395.983 190.277 396.026 190.291C396.068 190.306 396.107 190.329 396.141 190.358C396.175 190.388 396.202 190.424 396.222 190.465C396.241 190.505 396.253 190.549 396.255 190.594M440.574 190.594C440.613 190.617 440.647 190.647 440.674 190.684C440.7 190.72 440.719 190.762 440.729 190.806C440.74 190.85 440.741 190.895 440.733 190.94C440.725 190.984 440.708 191.026 440.683 191.064C440.083 192.039 439.463 192.987 438.822 193.921C438.767 193.984 438.691 194.024 438.608 194.035C438.526 194.046 438.442 194.025 438.373 193.978C438.304 193.931 438.255 193.861 438.235 193.78C438.214 193.699 438.224 193.613 438.263 193.539C438.89 192.612 439.511 191.671 440.104 190.71C440.152 190.633 440.228 190.578 440.316 190.556C440.403 190.535 440.496 190.548 440.574 190.594M389.716 191.753C389.745 191.838 389.738 191.931 389.699 192.011C389.659 192.091 389.59 192.153 389.505 192.182C388.476 192.543 387.483 193 386.539 193.546C386.461 193.591 386.369 193.603 386.282 193.58C386.195 193.557 386.121 193.501 386.075 193.423C386.03 193.344 386.018 193.251 386.041 193.163C386.064 193.075 386.12 193 386.198 192.953C387.178 192.38 388.21 191.9 389.28 191.521C389.366 191.492 389.46 191.499 389.541 191.538C389.623 191.578 389.685 191.647 389.716 191.732M405.617 192.107C405.636 192.067 405.664 192.031 405.698 192.001C405.731 191.972 405.771 191.949 405.813 191.935C405.856 191.921 405.901 191.916 405.946 191.92C405.99 191.924 406.034 191.936 406.074 191.957C407.13 192.493 408.142 193.111 409.101 193.805C409.138 193.831 409.169 193.864 409.193 193.902C409.217 193.94 409.234 193.982 409.241 194.027C409.249 194.071 409.248 194.117 409.238 194.16C409.228 194.204 409.209 194.246 409.183 194.282C409.128 194.354 409.048 194.402 408.959 194.416C408.87 194.43 408.779 194.409 408.705 194.357C407.773 193.685 406.791 193.085 405.767 192.564C405.686 192.523 405.626 192.452 405.597 192.367C405.569 192.281 405.576 192.188 405.617 192.107M383.914 195.053C383.946 195.084 383.971 195.121 383.988 195.162C384.005 195.203 384.014 195.247 384.014 195.292C384.014 195.336 384.005 195.38 383.988 195.421C383.971 195.462 383.946 195.499 383.914 195.53C383.125 196.278 382.438 197.127 381.868 198.053C381.847 198.095 381.818 198.132 381.781 198.163C381.745 198.193 381.703 198.215 381.657 198.228C381.612 198.241 381.564 198.244 381.518 198.238C381.471 198.232 381.426 198.216 381.386 198.191C381.346 198.166 381.311 198.134 381.284 198.095C381.257 198.056 381.238 198.012 381.229 197.966C381.22 197.92 381.221 197.872 381.231 197.826C381.241 197.78 381.261 197.736 381.289 197.698C381.882 196.72 382.605 195.825 383.437 195.039C383.468 195.007 383.506 194.982 383.548 194.965C383.589 194.947 383.634 194.938 383.679 194.938C383.724 194.938 383.768 194.947 383.81 194.965C383.851 194.982 383.889 195.007 383.921 195.039M411.337 196.069C411.369 196.037 411.407 196.011 411.448 195.994C411.49 195.977 411.534 195.968 411.579 195.968C411.624 195.968 411.669 195.977 411.71 195.994C411.752 196.011 411.79 196.037 411.821 196.069C412.667 196.832 413.503 197.664 414.331 198.564C414.363 198.596 414.388 198.634 414.405 198.675C414.422 198.717 414.431 198.761 414.431 198.806C414.431 198.851 414.422 198.896 414.405 198.937C414.388 198.979 414.363 199.017 414.331 199.048C414.267 199.111 414.181 199.146 414.092 199.146C414.003 199.146 413.917 199.111 413.853 199.048C413.044 198.162 412.221 197.344 411.385 196.594C411.322 196.529 411.287 196.442 411.287 196.352C411.287 196.261 411.322 196.175 411.385 196.11M436.79 196.26C436.863 196.314 436.91 196.395 436.923 196.484C436.936 196.574 436.913 196.665 436.858 196.737C436.177 197.646 435.477 198.542 434.758 199.423C434.701 199.493 434.619 199.537 434.529 199.545C434.44 199.554 434.351 199.528 434.281 199.471C434.246 199.443 434.217 199.408 434.195 199.368C434.173 199.328 434.16 199.284 434.156 199.239C434.151 199.194 434.156 199.149 434.169 199.105C434.182 199.062 434.204 199.022 434.233 198.987C434.915 198.121 435.597 197.235 436.279 196.328C436.306 196.292 436.339 196.262 436.378 196.239C436.416 196.216 436.459 196.201 436.503 196.195C436.548 196.189 436.593 196.191 436.636 196.202C436.68 196.213 436.72 196.233 436.756 196.26M380.382 200.637C380.469 200.661 380.542 200.718 380.587 200.796C380.631 200.874 380.644 200.966 380.621 201.053C380.352 202.102 380.23 203.182 380.259 204.264C380.261 204.309 380.254 204.353 380.238 204.395C380.223 204.437 380.199 204.475 380.169 204.507C380.138 204.54 380.102 204.566 380.061 204.584C380.02 204.602 379.976 204.611 379.932 204.612C379.887 204.614 379.843 204.607 379.8 204.592C379.758 204.576 379.72 204.552 379.687 204.522C379.654 204.492 379.627 204.455 379.609 204.414C379.59 204.374 379.579 204.33 379.577 204.285C379.544 203.136 379.675 201.988 379.966 200.876C379.99 200.789 380.047 200.716 380.125 200.671C380.203 200.626 380.295 200.614 380.382 200.637M416.144 201.21C416.179 201.181 416.219 201.16 416.262 201.147C416.305 201.135 416.35 201.131 416.394 201.136C416.439 201.141 416.482 201.155 416.521 201.177C416.56 201.199 416.594 201.229 416.622 201.264C417.331 202.174 418.012 203.124 418.667 204.114C418.693 204.151 418.711 204.192 418.72 204.236C418.73 204.279 418.73 204.325 418.722 204.368C418.714 204.412 418.697 204.454 418.672 204.491C418.647 204.528 418.616 204.56 418.578 204.585C418.541 204.611 418.5 204.629 418.455 204.638C418.411 204.648 418.366 204.649 418.321 204.64C418.277 204.632 418.235 204.615 418.197 204.59C418.159 204.566 418.126 204.534 418.101 204.496C417.419 203.514 416.737 202.58 416.056 201.687C416.001 201.616 415.976 201.525 415.988 201.436C415.999 201.346 416.046 201.265 416.117 201.21M432.481 201.53C432.513 201.562 432.538 201.6 432.556 201.641C432.573 201.683 432.582 201.727 432.582 201.772C432.582 201.817 432.573 201.862 432.556 201.903C432.538 201.945 432.513 201.983 432.481 202.014C431.717 202.869 430.942 203.699 430.156 204.503C430.125 204.535 430.087 204.561 430.046 204.579C430.005 204.597 429.96 204.606 429.915 204.607C429.87 204.607 429.826 204.599 429.784 204.583C429.742 204.566 429.704 204.541 429.672 204.51C429.64 204.479 429.614 204.441 429.596 204.4C429.578 204.359 429.569 204.314 429.568 204.269C429.568 204.224 429.576 204.18 429.592 204.138C429.609 204.096 429.634 204.058 429.665 204.026C430.449 203.228 431.213 202.403 431.976 201.558C432.008 201.526 432.045 201.501 432.086 201.483C432.127 201.466 432.171 201.457 432.215 201.457C432.26 201.457 432.304 201.466 432.345 201.483C432.386 201.501 432.423 201.526 432.454 201.558M427.735 206.44C427.767 206.471 427.792 206.508 427.81 206.549C427.827 206.59 427.836 206.634 427.836 206.678C427.836 206.723 427.827 206.767 427.81 206.808C427.792 206.849 427.767 206.886 427.735 206.917C426.897 207.701 426.051 208.465 425.192 209.194C425.123 209.253 425.034 209.282 424.944 209.275C424.854 209.268 424.77 209.225 424.712 209.157C424.653 209.088 424.624 208.999 424.631 208.909C424.638 208.818 424.68 208.735 424.749 208.676C425.594 207.953 426.44 207.196 427.272 206.419C427.302 206.386 427.339 206.36 427.38 206.343C427.421 206.325 427.466 206.316 427.51 206.316C427.555 206.316 427.599 206.325 427.64 206.343C427.681 206.36 427.718 206.386 427.749 206.419M420.106 206.978C420.185 206.933 420.278 206.921 420.366 206.944C420.454 206.967 420.529 207.023 420.576 207.101C421.163 208.09 421.728 209.146 422.274 210.176C422.295 210.216 422.308 210.259 422.311 210.304C422.315 210.349 422.31 210.394 422.296 210.436C422.282 210.479 422.26 210.518 422.23 210.552C422.2 210.586 422.164 210.613 422.124 210.633C422.044 210.674 421.952 210.682 421.866 210.655C421.781 210.628 421.709 210.569 421.667 210.49C421.131 209.44 420.572 208.424 419.99 207.442C419.944 207.365 419.931 207.273 419.953 207.186C419.975 207.1 420.029 207.025 420.106 206.978M380.334 207.244C380.377 207.232 380.422 207.228 380.467 207.232C380.511 207.237 380.554 207.251 380.594 207.272C380.633 207.294 380.668 207.323 380.696 207.358C380.724 207.393 380.744 207.433 380.757 207.476C381.061 208.524 381.477 209.537 381.998 210.496C382.019 210.536 382.032 210.579 382.037 210.623C382.041 210.668 382.036 210.712 382.023 210.755C382.009 210.798 381.988 210.837 381.959 210.871C381.93 210.905 381.895 210.933 381.855 210.953C381.816 210.975 381.773 210.988 381.729 210.993C381.685 210.998 381.64 210.994 381.598 210.981C381.555 210.968 381.516 210.947 381.481 210.919C381.447 210.891 381.419 210.856 381.398 210.817C380.854 209.814 380.419 208.756 380.102 207.66C380.089 207.618 380.084 207.573 380.089 207.528C380.093 207.484 380.107 207.441 380.129 207.402C380.15 207.363 380.18 207.329 380.215 207.302C380.251 207.275 380.291 207.255 380.334 207.244M422.608 210.844C422.661 210.916 422.685 211.006 422.673 211.095C422.662 211.184 422.616 211.265 422.547 211.321C421.638 212.031 420.728 212.712 419.819 213.367C419.783 213.393 419.741 213.412 419.697 213.422C419.653 213.432 419.608 213.433 419.564 213.426C419.519 213.418 419.477 213.402 419.439 213.378C419.401 213.353 419.368 213.322 419.342 213.285C419.292 213.21 419.273 213.118 419.289 213.028C419.306 212.939 419.357 212.86 419.431 212.808C420.34 212.181 421.249 211.515 422.158 210.81C422.231 210.755 422.322 210.73 422.413 210.742C422.503 210.753 422.586 210.8 422.642 210.871M383.341 213.197C383.413 213.142 383.503 213.117 383.592 213.129C383.682 213.14 383.763 213.187 383.818 213.258C384.498 214.121 385.236 214.937 386.028 215.699C386.06 215.729 386.086 215.766 386.104 215.807C386.122 215.849 386.131 215.893 386.131 215.937C386.131 215.982 386.122 216.026 386.104 216.068C386.086 216.109 386.06 216.146 386.028 216.176C385.996 216.208 385.959 216.233 385.918 216.25C385.877 216.268 385.833 216.276 385.789 216.276C385.745 216.276 385.701 216.268 385.66 216.25C385.619 216.233 385.581 216.208 385.55 216.176C384.736 215.391 383.976 214.553 383.273 213.667C383.218 213.594 383.193 213.503 383.204 213.412C383.216 213.322 383.263 213.239 383.334 213.183M423.365 213.183C423.447 213.146 423.541 213.143 423.625 213.175C423.709 213.207 423.778 213.271 423.815 213.353C424.269 214.417 424.724 215.503 425.179 216.613C425.21 216.697 425.206 216.79 425.169 216.871C425.132 216.953 425.065 217.017 424.981 217.049C424.939 217.065 424.895 217.073 424.85 217.072C424.806 217.071 424.762 217.061 424.721 217.042C424.68 217.024 424.644 216.997 424.613 216.965C424.583 216.932 424.56 216.893 424.544 216.851C424.122 215.751 423.679 214.678 423.215 213.633C423.178 213.551 423.175 213.457 423.207 213.373C423.239 213.288 423.303 213.22 423.385 213.183M417.106 214.751C417.129 214.79 417.145 214.832 417.152 214.877C417.159 214.921 417.157 214.967 417.146 215.011C417.135 215.054 417.116 215.095 417.089 215.132C417.062 215.168 417.028 215.198 416.99 215.222C415.999 215.835 415.012 216.406 414.031 216.933C413.951 216.975 413.858 216.984 413.771 216.958C413.685 216.933 413.611 216.875 413.567 216.797C413.546 216.757 413.532 216.713 413.528 216.668C413.524 216.623 413.528 216.578 413.542 216.535C413.555 216.492 413.577 216.452 413.606 216.417C413.635 216.382 413.67 216.354 413.71 216.333C414.678 215.815 415.66 215.249 416.635 214.642C416.712 214.596 416.805 214.581 416.892 214.602C416.98 214.622 417.057 214.676 417.106 214.751ZM388.073 217.888C388.128 217.816 388.21 217.77 388.299 217.758C388.389 217.747 388.479 217.771 388.55 217.826C388.98 218.153 389.43 218.474 389.914 218.794C390.367 219.107 390.844 219.385 391.339 219.626C391.42 219.666 391.483 219.736 391.512 219.822C391.542 219.908 391.536 220.002 391.496 220.083C391.456 220.164 391.386 220.227 391.3 220.256C391.214 220.285 391.12 220.28 391.039 220.24C390.517 219.983 390.013 219.689 389.532 219.36C389.055 219.033 388.598 218.678 388.169 218.365C388.133 218.338 388.103 218.304 388.08 218.266C388.057 218.227 388.042 218.185 388.036 218.14C388.029 218.096 388.032 218.051 388.043 218.007C388.054 217.964 388.074 217.923 388.1 217.888M411.167 218.003C411.204 218.086 411.207 218.179 411.175 218.264C411.143 218.348 411.079 218.416 410.996 218.453C409.933 218.938 408.876 219.367 407.84 219.749C407.755 219.78 407.661 219.775 407.579 219.737C407.497 219.699 407.434 219.629 407.403 219.544C407.372 219.46 407.375 219.367 407.412 219.286C407.449 219.204 407.517 219.14 407.601 219.108C408.628 218.735 409.667 218.31 410.717 217.833C410.799 217.798 410.892 217.796 410.976 217.828C411.06 217.86 411.128 217.922 411.167 218.003M425.942 219.715C425.984 219.701 426.029 219.696 426.073 219.699C426.117 219.703 426.16 219.715 426.199 219.736C426.239 219.756 426.273 219.784 426.302 219.818C426.33 219.852 426.352 219.891 426.365 219.933C426.72 221.042 427.047 222.179 427.347 223.342C427.369 223.433 427.355 223.528 427.307 223.608C427.259 223.688 427.182 223.746 427.091 223.768C427.001 223.791 426.905 223.777 426.825 223.729C426.745 223.681 426.688 223.603 426.665 223.513C426.372 222.381 426.045 221.263 425.697 220.172C425.683 220.129 425.678 220.083 425.682 220.039C425.686 219.994 425.699 219.95 425.72 219.91C425.741 219.87 425.769 219.835 425.804 219.806C425.839 219.777 425.879 219.755 425.922 219.742M404.785 220.383C404.796 220.426 404.799 220.472 404.792 220.516C404.786 220.561 404.771 220.603 404.749 220.642C404.726 220.681 404.695 220.714 404.66 220.741C404.624 220.768 404.583 220.788 404.539 220.799C403.433 221.091 402.311 221.319 401.178 221.481C401.133 221.487 401.088 221.484 401.044 221.473C401 221.462 400.959 221.442 400.923 221.415C400.887 221.387 400.856 221.353 400.834 221.314C400.811 221.275 400.796 221.232 400.789 221.188C400.783 221.143 400.786 221.097 400.797 221.054C400.808 221.01 400.828 220.969 400.855 220.933C400.883 220.896 400.917 220.866 400.956 220.843C400.995 220.82 401.038 220.805 401.083 220.799C402.19 220.636 403.288 220.408 404.369 220.117C404.412 220.106 404.458 220.103 404.502 220.11C404.546 220.116 404.589 220.131 404.628 220.154C404.667 220.176 404.7 220.207 404.727 220.242C404.754 220.278 404.774 220.319 404.785 220.363M394.005 220.908C394.025 220.82 394.078 220.744 394.153 220.694C394.228 220.644 394.319 220.626 394.407 220.642C395.493 220.863 396.599 220.975 397.707 220.976C397.798 220.976 397.885 221.012 397.949 221.076C398.012 221.14 398.048 221.227 398.048 221.317C398.048 221.408 398.012 221.494 397.949 221.558C397.885 221.622 397.798 221.658 397.707 221.658C396.562 221.654 395.42 221.538 394.298 221.31C394.254 221.301 394.213 221.284 394.176 221.259C394.138 221.234 394.107 221.202 394.082 221.164C394.057 221.127 394.04 221.085 394.032 221.041C394.023 220.997 394.023 220.952 394.032 220.908M427.701 226.438C427.791 226.422 427.883 226.441 427.958 226.492C428.033 226.543 428.085 226.621 428.104 226.71C428.335 227.849 428.533 229.008 428.704 230.174C428.71 230.219 428.707 230.265 428.696 230.308C428.685 230.352 428.665 230.393 428.638 230.429C428.61 230.465 428.576 230.496 428.537 230.519C428.498 230.542 428.455 230.557 428.41 230.563C428.366 230.569 428.32 230.567 428.276 230.555C428.233 230.544 428.191 230.524 428.155 230.497C428.119 230.47 428.089 230.435 428.066 230.396C428.043 230.358 428.028 230.314 428.022 230.27C427.851 229.117 427.654 227.972 427.429 226.86C427.42 226.817 427.419 226.771 427.428 226.727C427.436 226.683 427.454 226.642 427.478 226.604C427.503 226.567 427.535 226.535 427.572 226.51C427.609 226.485 427.651 226.467 427.695 226.458M428.731 233.379C428.776 233.375 428.821 233.38 428.864 233.394C428.906 233.408 428.946 233.43 428.98 233.459C429.014 233.488 429.043 233.524 429.063 233.564C429.083 233.604 429.096 233.648 429.099 233.692C429.201 234.852 429.27 236.024 429.304 237.204C429.304 237.294 429.268 237.381 429.204 237.445C429.14 237.509 429.053 237.545 428.963 237.545C428.872 237.545 428.786 237.509 428.722 237.445C428.658 237.381 428.622 237.294 428.622 237.204C428.622 236.038 428.52 234.879 428.424 233.727C428.419 233.682 428.424 233.637 428.437 233.594C428.45 233.552 428.471 233.512 428.5 233.478C428.528 233.443 428.564 233.415 428.603 233.395C428.643 233.374 428.686 233.362 428.731 233.358M428.97 240.354C429.014 240.355 429.058 240.365 429.099 240.383C429.139 240.401 429.176 240.427 429.206 240.459C429.237 240.491 429.26 240.53 429.276 240.571C429.292 240.613 429.299 240.657 429.297 240.702C429.297 241.868 429.188 243.04 429.079 244.213C429.075 244.258 429.063 244.302 429.043 244.342C429.022 244.382 428.994 244.417 428.96 244.447C428.926 244.476 428.886 244.498 428.843 244.512C428.8 244.525 428.755 244.531 428.71 244.527C428.666 244.523 428.622 244.509 428.582 244.488C428.543 244.467 428.507 244.438 428.479 244.403C428.45 244.368 428.429 244.328 428.416 244.285C428.403 244.242 428.399 244.197 428.404 244.152C428.506 242.993 428.581 241.834 428.615 240.681C428.617 240.636 428.627 240.592 428.646 240.552C428.665 240.511 428.691 240.475 428.724 240.444C428.757 240.414 428.796 240.39 428.838 240.375C428.88 240.359 428.925 240.352 428.97 240.354M428.363 247.322C428.451 247.337 428.531 247.386 428.584 247.459C428.638 247.531 428.661 247.622 428.649 247.711C428.465 248.863 428.254 250.016 427.967 251.168C427.948 251.258 427.894 251.337 427.817 251.388C427.739 251.439 427.645 251.456 427.555 251.437C427.464 251.418 427.385 251.364 427.335 251.287C427.284 251.209 427.266 251.115 427.285 251.025C427.538 249.879 427.749 248.741 427.926 247.616C427.941 247.527 427.991 247.448 428.063 247.396C428.136 247.344 428.226 247.322 428.315 247.336M426.849 254.154C426.893 254.166 426.933 254.186 426.969 254.214C427.004 254.242 427.033 254.277 427.055 254.316C427.077 254.356 427.09 254.399 427.095 254.444C427.099 254.489 427.094 254.534 427.081 254.577C426.758 255.695 426.399 256.811 426.004 257.925C425.989 257.968 425.966 258.008 425.936 258.042C425.906 258.077 425.87 258.105 425.829 258.125C425.788 258.145 425.743 258.156 425.698 258.158C425.652 258.161 425.607 258.154 425.564 258.139C425.521 258.123 425.482 258.099 425.448 258.068C425.415 258.037 425.388 258 425.369 257.958C425.35 257.917 425.34 257.872 425.339 257.826C425.338 257.781 425.346 257.735 425.363 257.693C425.758 256.593 426.113 255.491 426.426 254.386C426.453 254.3 426.512 254.228 426.591 254.185C426.67 254.142 426.762 254.131 426.849 254.154M424.531 260.754C424.614 260.789 424.68 260.855 424.714 260.938C424.749 261.021 424.749 261.114 424.715 261.198C424.26 262.27 423.763 263.334 423.222 264.389C423.178 264.468 423.106 264.528 423.02 264.556C422.933 264.584 422.84 264.578 422.758 264.539C422.679 264.496 422.619 264.425 422.591 264.34C422.563 264.255 422.569 264.163 422.608 264.082C423.176 263.027 423.688 261.977 424.142 260.932C424.178 260.85 424.245 260.786 424.328 260.753C424.41 260.719 424.503 260.72 424.585 260.754M421.415 267.007C421.493 267.054 421.549 267.129 421.572 267.217C421.595 267.305 421.583 267.398 421.538 267.477C421.242 267.982 420.935 268.487 420.617 268.991C420.303 269.496 419.983 269.987 419.663 270.477C419.64 270.519 419.609 270.556 419.572 270.585C419.534 270.614 419.491 270.635 419.445 270.647C419.399 270.658 419.351 270.66 419.305 270.652C419.258 270.644 419.213 270.627 419.174 270.601C419.134 270.574 419.101 270.54 419.075 270.5C419.049 270.46 419.032 270.415 419.025 270.369C419.018 270.322 419.021 270.274 419.033 270.228C419.045 270.182 419.067 270.139 419.097 270.102C419.417 269.618 419.731 269.127 420.044 268.63C420.358 268.132 420.658 267.634 420.951 267.13C420.997 267.052 421.071 266.996 421.158 266.973C421.245 266.95 421.337 266.962 421.415 267.007M417.637 272.823C417.675 272.849 417.706 272.882 417.73 272.92C417.754 272.958 417.77 273.001 417.777 273.046C417.784 273.09 417.782 273.136 417.771 273.18C417.76 273.223 417.74 273.264 417.712 273.3C417.031 274.262 416.315 275.182 415.599 276.075C415.542 276.146 415.459 276.191 415.369 276.2C415.279 276.21 415.189 276.183 415.118 276.126C415.048 276.069 415.003 275.987 414.993 275.897C414.983 275.807 415.01 275.716 415.067 275.646C415.776 274.768 416.474 273.859 417.16 272.918C417.215 272.847 417.295 272.799 417.384 272.785C417.473 272.771 417.564 272.792 417.637 272.843M413.335 278.257C413.398 278.322 413.433 278.409 413.433 278.499C413.433 278.59 413.398 278.676 413.335 278.741C412.551 279.614 411.767 280.446 410.969 281.25C410.904 281.313 410.817 281.349 410.727 281.349C410.637 281.349 410.55 281.313 410.485 281.25C410.453 281.219 410.428 281.181 410.41 281.139C410.393 281.098 410.384 281.053 410.384 281.008C410.384 280.963 410.393 280.919 410.41 280.877C410.428 280.836 410.453 280.798 410.485 280.766C411.269 279.975 412.053 279.15 412.824 278.284C412.855 278.253 412.893 278.227 412.935 278.21C412.976 278.193 413.021 278.184 413.066 278.184C413.111 278.184 413.155 278.193 413.197 278.21C413.238 278.227 413.276 278.253 413.308 278.284M408.48 283.18C408.543 283.244 408.578 283.329 408.578 283.419C408.578 283.508 408.543 283.594 408.48 283.657C407.601 284.441 406.714 285.191 405.814 285.894C405.744 285.949 405.654 285.975 405.565 285.965C405.475 285.955 405.393 285.909 405.337 285.839C405.281 285.769 405.256 285.679 405.266 285.589C405.276 285.5 405.321 285.418 405.392 285.362C406.301 284.662 407.178 283.926 408.024 283.153C408.055 283.121 408.093 283.095 408.135 283.078C408.176 283.061 408.221 283.052 408.266 283.052C408.311 283.052 408.355 283.061 408.397 283.078C408.438 283.095 408.476 283.121 408.508 283.153M403.114 287.455C403.14 287.492 403.158 287.534 403.168 287.578C403.177 287.622 403.178 287.668 403.17 287.712C403.162 287.757 403.145 287.799 403.12 287.837C403.095 287.875 403.063 287.907 403.026 287.932C402.064 288.614 401.096 289.221 400.114 289.807C400.076 289.831 400.034 289.846 399.99 289.853C399.946 289.86 399.901 289.858 399.858 289.847C399.815 289.836 399.774 289.817 399.739 289.79C399.703 289.764 399.673 289.73 399.651 289.692C399.627 289.653 399.612 289.61 399.605 289.566C399.598 289.521 399.6 289.476 399.61 289.432C399.621 289.388 399.641 289.347 399.667 289.311C399.694 289.275 399.728 289.244 399.767 289.221C400.728 288.648 401.689 288.028 402.644 287.373C402.68 287.347 402.721 287.329 402.764 287.319C402.808 287.309 402.853 287.308 402.896 287.315C402.94 287.323 402.982 287.339 403.019 287.363C403.057 287.387 403.089 287.419 403.114 287.455M335.163 288.41C335.206 288.33 335.279 288.271 335.365 288.244C335.452 288.217 335.546 288.225 335.626 288.267V288.267L335.701 288.307L335.988 288.451C336.24 288.58 336.622 288.771 337.113 289.003C337.158 289.018 337.2 289.043 337.236 289.075C337.271 289.108 337.3 289.147 337.319 289.192C337.338 289.236 337.347 289.283 337.346 289.332C337.346 289.38 337.335 289.427 337.315 289.471C337.294 289.514 337.265 289.553 337.228 289.585C337.192 289.616 337.149 289.639 337.103 289.653C337.057 289.667 337.009 289.671 336.961 289.665C336.913 289.658 336.867 289.642 336.826 289.617C336.322 289.385 335.94 289.194 335.681 289.064L335.381 288.914L335.306 288.873L335.47 288.573L335.306 288.873C335.228 288.829 335.169 288.756 335.144 288.669C335.119 288.583 335.128 288.49 335.17 288.41M339.827 290.578C339.864 290.496 339.931 290.431 340.015 290.397C340.099 290.362 340.192 290.361 340.276 290.394C341.217 290.789 342.322 291.205 343.474 291.642C343.559 291.673 343.628 291.737 343.666 291.82C343.704 291.902 343.707 291.996 343.675 292.081C343.644 292.166 343.58 292.235 343.497 292.273C343.415 292.311 343.321 292.314 343.236 292.283C342.042 291.846 340.965 291.417 340.011 291.028C339.928 290.991 339.863 290.923 339.829 290.839C339.795 290.756 339.794 290.662 339.827 290.578M397.264 291.001C397.285 291.04 397.298 291.084 397.302 291.129C397.306 291.173 397.3 291.218 397.286 291.261C397.272 291.304 397.25 291.343 397.22 291.377C397.191 291.411 397.155 291.438 397.114 291.458C396.078 291.989 395.035 292.487 393.985 292.937C393.943 292.961 393.897 292.976 393.849 292.981C393.802 292.986 393.754 292.981 393.708 292.966C393.663 292.951 393.621 292.927 393.585 292.894C393.55 292.862 393.521 292.823 393.502 292.779C393.483 292.735 393.473 292.688 393.473 292.64C393.474 292.592 393.484 292.545 393.504 292.501C393.524 292.457 393.552 292.418 393.588 292.387C393.624 292.355 393.666 292.331 393.712 292.317C394.748 291.867 395.757 291.383 396.807 290.851C396.888 290.81 396.981 290.803 397.067 290.831C397.152 290.86 397.223 290.92 397.264 291.001M346.311 292.992C346.339 292.906 346.4 292.835 346.48 292.794C346.561 292.753 346.654 292.745 346.74 292.773C347.777 293.11 348.868 293.439 350.013 293.762C350.1 293.786 350.173 293.843 350.218 293.921C350.263 293.999 350.275 294.091 350.252 294.178C350.226 294.265 350.168 294.339 350.089 294.383C350.01 294.428 349.917 294.44 349.829 294.417C348.677 294.089 347.572 293.735 346.536 293.421C346.45 293.393 346.378 293.332 346.336 293.252C346.294 293.172 346.285 293.078 346.311 292.992M390.971 293.776C390.999 293.862 390.993 293.955 390.954 294.037C390.914 294.118 390.845 294.181 390.76 294.212C389.662 294.608 388.557 294.955 387.459 295.269C387.417 295.282 387.371 295.287 387.326 295.283C387.282 295.278 387.238 295.265 387.199 295.243C387.159 295.222 387.124 295.192 387.097 295.157C387.069 295.121 387.048 295.081 387.037 295.037C387.013 294.95 387.024 294.858 387.067 294.779C387.111 294.7 387.183 294.641 387.269 294.614C388.359 294.308 389.444 293.933 390.535 293.571C390.62 293.54 390.713 293.545 390.795 293.583C390.877 293.621 390.94 293.691 390.971 293.776M352.925 294.88C352.935 294.836 352.954 294.795 352.981 294.758C353.007 294.721 353.041 294.69 353.08 294.667C353.118 294.643 353.161 294.628 353.206 294.621C353.251 294.615 353.297 294.617 353.34 294.628C354.425 294.887 355.543 295.133 356.695 295.358C356.784 295.376 356.862 295.428 356.913 295.503C356.964 295.578 356.984 295.671 356.968 295.76C356.96 295.804 356.943 295.846 356.918 295.884C356.893 295.922 356.861 295.954 356.823 295.979C356.786 296.003 356.744 296.02 356.699 296.029C356.655 296.037 356.609 296.036 356.566 296.026C355.406 295.801 354.275 295.549 353.156 295.289C353.069 295.268 352.993 295.214 352.946 295.137C352.899 295.06 352.884 294.968 352.904 294.88M384.33 295.712C384.34 295.756 384.341 295.802 384.334 295.846C384.326 295.89 384.31 295.933 384.286 295.971C384.261 296.009 384.23 296.042 384.193 296.067C384.156 296.093 384.115 296.112 384.071 296.121C382.932 296.367 381.793 296.585 380.662 296.762C380.617 296.769 380.571 296.767 380.527 296.756C380.483 296.745 380.442 296.725 380.406 296.699C380.369 296.672 380.338 296.638 380.315 296.599C380.292 296.56 380.276 296.517 380.27 296.472C380.263 296.428 380.265 296.382 380.276 296.338C380.287 296.294 380.306 296.253 380.333 296.216C380.36 296.18 380.394 296.149 380.433 296.126C380.472 296.103 380.515 296.087 380.559 296.08C381.678 295.903 382.803 295.692 383.928 295.446C383.971 295.436 384.016 295.435 384.06 295.443C384.104 295.45 384.146 295.467 384.183 295.491C384.221 295.515 384.253 295.547 384.278 295.583C384.303 295.62 384.321 295.662 384.33 295.705M359.675 296.23C359.69 296.142 359.739 296.062 359.811 296.009C359.884 295.955 359.974 295.932 360.063 295.944C361.175 296.114 362.313 296.264 363.473 296.387C363.563 296.397 363.646 296.443 363.703 296.514C363.759 296.584 363.786 296.675 363.776 296.766C363.766 296.856 363.721 296.939 363.65 296.996C363.579 297.053 363.488 297.079 363.397 297.069C362.232 296.939 361.093 296.789 359.988 296.619C359.9 296.604 359.82 296.555 359.767 296.482C359.713 296.41 359.69 296.32 359.702 296.23M377.559 296.817C377.567 296.906 377.539 296.995 377.481 297.064C377.424 297.133 377.342 297.176 377.252 297.185C376.093 297.303 374.941 297.385 373.795 297.43C373.751 297.432 373.706 297.425 373.664 297.41C373.622 297.394 373.583 297.371 373.55 297.34C373.517 297.31 373.491 297.273 373.472 297.233C373.453 297.192 373.443 297.148 373.441 297.103C373.439 297.058 373.446 297.014 373.462 296.972C373.477 296.929 373.501 296.891 373.531 296.858C373.561 296.825 373.598 296.798 373.639 296.78C373.679 296.761 373.723 296.75 373.768 296.749C374.9 296.701 376.039 296.619 377.177 296.51C377.222 296.505 377.268 296.509 377.311 296.522C377.354 296.535 377.394 296.557 377.429 296.585C377.464 296.614 377.493 296.649 377.514 296.689C377.535 296.728 377.548 296.772 377.552 296.817M366.541 296.994C366.548 296.905 366.59 296.822 366.657 296.763C366.725 296.704 366.813 296.675 366.902 296.68C368.034 296.749 369.173 296.789 370.311 296.796C370.356 296.797 370.4 296.807 370.441 296.825C370.482 296.843 370.519 296.869 370.55 296.901C370.581 296.933 370.606 296.971 370.622 297.013C370.638 297.055 370.646 297.099 370.645 297.144C370.645 297.188 370.637 297.232 370.619 297.273C370.602 297.314 370.577 297.352 370.545 297.383C370.513 297.414 370.476 297.438 370.434 297.455C370.393 297.471 370.349 297.479 370.304 297.478C369.132 297.478 367.979 297.424 366.841 297.355C366.796 297.353 366.752 297.341 366.712 297.322C366.671 297.302 366.635 297.275 366.605 297.241C366.576 297.208 366.553 297.169 366.538 297.126C366.524 297.084 366.518 297.039 366.52 296.994" fill="#2E1407"/>
<path d="M449.11 166.36C449.295 166.18 449.527 166.055 449.78 166.002C450.033 165.948 450.296 165.968 450.538 166.058C450.78 166.148 450.992 166.305 451.148 166.51C451.305 166.716 451.4 166.962 451.422 167.219L452.997 188.983C453.01 189.209 452.968 189.435 452.872 189.64C452.777 189.845 452.632 190.023 452.451 190.158C452.27 190.294 452.058 190.382 451.834 190.415C451.61 190.448 451.382 190.424 451.169 190.347L444.992 188.056C444.771 187.971 444.583 187.82 444.452 187.624C444.321 187.427 444.255 187.194 444.262 186.958C444.271 186.74 444.216 186.523 444.103 186.336C443.99 186.148 443.825 185.998 443.627 185.904C443.43 185.809 443.209 185.775 442.992 185.805C442.776 185.835 442.572 185.928 442.408 186.072L442.155 186.297C441.985 186.447 441.777 186.549 441.554 186.589C441.33 186.63 441.1 186.609 440.887 186.529L434.212 184.054C434 183.974 433.812 183.842 433.663 183.67C433.515 183.499 433.412 183.293 433.363 183.072C433.315 182.851 433.322 182.621 433.384 182.403C433.447 182.185 433.563 181.986 433.721 181.824L449.11 166.36Z" fill="#2E1407"/>
<path fill-rule="evenodd" clip-rule="evenodd" d="M447.543 175.224C447.585 175.24 447.624 175.264 447.657 175.295C447.69 175.326 447.716 175.363 447.735 175.404C447.753 175.446 447.763 175.49 447.764 175.535C447.765 175.58 447.757 175.625 447.741 175.667L443.848 185.724C443.813 185.807 443.747 185.874 443.664 185.909C443.582 185.945 443.489 185.947 443.404 185.915C443.362 185.897 443.324 185.87 443.292 185.837C443.26 185.803 443.236 185.763 443.22 185.72C443.204 185.677 443.197 185.631 443.199 185.584C443.202 185.538 443.213 185.493 443.234 185.452L447.127 175.422C447.159 175.338 447.223 175.271 447.305 175.234C447.386 175.197 447.479 175.193 447.564 175.224" fill="#F8F4F1"/>
</svg>
